<mxfile host="Electron" modified="2024-05-18T02:55:00.692Z" agent="Mozilla/5.0 (Windows NT 10.0; Win64; x64) AppleWebKit/537.36 (KHTML, like Gecko) draw.io/24.4.0 Chrome/120.0.6099.109 Electron/28.1.0 Safari/537.36" etag="5tqh_mP2Eyfw1YzvID5D" version="24.4.0" type="device">
  <diagram name="Page-1" id="KZN-zyBD-0XipZeYQRDT">
    <mxGraphModel dx="841" dy="486" grid="1" gridSize="10" guides="1" tooltips="1" connect="1" arrows="1" fold="1" page="1" pageScale="1" pageWidth="500" pageHeight="200" math="0" shadow="0">
      <root>
        <mxCell id="0" />
        <mxCell id="1" parent="0" />
        <mxCell id="gP5-K7wSO0AvluWSjb66-2" value="" style="group" vertex="1" connectable="0" parent="1">
          <mxGeometry x="9" y="78" width="482.6" height="44.45" as="geometry" />
        </mxCell>
        <mxCell id="PZP4gdgeWaH-fIwLRfgN-368" value="" style="rounded=0;whiteSpace=wrap;html=1;fillColor=#212727;strokeColor=#1C2121;glass=0;aspect=fixed;container=0;" parent="gP5-K7wSO0AvluWSjb66-2" vertex="1">
          <mxGeometry width="482.6" height="44.45" as="geometry" />
        </mxCell>
        <mxCell id="PZP4gdgeWaH-fIwLRfgN-369" value="" style="rounded=0;whiteSpace=wrap;html=1;fillColor=#999999;strokeColor=#1C2121;glass=0;aspect=fixed;container=0;" parent="gP5-K7wSO0AvluWSjb66-2" vertex="1">
          <mxGeometry x="18" width="446.6" height="44.45" as="geometry" />
        </mxCell>
        <mxCell id="YYMgzYGZ-UMVyeNX6nmy-1" value="" style="rounded=0;whiteSpace=wrap;html=1;fillColor=#000000;strokeColor=#1C2121;glass=0;container=0;gradientColor=#111111;gradientDirection=east;" parent="gP5-K7wSO0AvluWSjb66-2" vertex="1">
          <mxGeometry x="364.6" width="100" height="44.45" as="geometry" />
        </mxCell>
        <mxCell id="YYMgzYGZ-UMVyeNX6nmy-31" value="" style="ellipse;whiteSpace=wrap;html=1;aspect=fixed;strokeColor=#1C2121;fillColor=#000000;container=0;perimeterSpacing=0;gradientColor=#1C2121;strokeWidth=0.5;" parent="gP5-K7wSO0AvluWSjb66-2" vertex="1">
          <mxGeometry x="380" y="17.25" width="10" height="10" as="geometry" />
        </mxCell>
        <mxCell id="YYMgzYGZ-UMVyeNX6nmy-32" value="" style="ellipse;whiteSpace=wrap;html=1;aspect=fixed;strokeColor=none;fillColor=#60a917;container=0;fontColor=#ffffff;" parent="gP5-K7wSO0AvluWSjb66-2" vertex="1">
          <mxGeometry x="384" y="21.25" width="2" height="2" as="geometry" />
        </mxCell>
        <mxCell id="YYMgzYGZ-UMVyeNX6nmy-33" value="" style="rounded=0;whiteSpace=wrap;html=1;fillColor=#1A1A1A;strokeColor=#1C2121;glass=0;container=0;gradientColor=#333333;strokeWidth=0.5;gradientDirection=south;" parent="gP5-K7wSO0AvluWSjb66-2" vertex="1">
          <mxGeometry x="405.4" y="5" width="45" height="34.45" as="geometry" />
        </mxCell>
        <mxCell id="YYMgzYGZ-UMVyeNX6nmy-37" value="" style="triangle;whiteSpace=wrap;html=1;strokeColor=none;fillColor=#000000;rounded=1;arcSize=5;rotation=-90;container=0;" parent="gP5-K7wSO0AvluWSjb66-2" vertex="1">
          <mxGeometry x="30" y="3.75" width="6" height="6" as="geometry" />
        </mxCell>
        <mxCell id="YYMgzYGZ-UMVyeNX6nmy-41" value="" style="triangle;whiteSpace=wrap;html=1;strokeColor=none;fillColor=#000000;rounded=1;arcSize=5;rotation=90;container=0;" parent="gP5-K7wSO0AvluWSjb66-2" vertex="1">
          <mxGeometry x="30" y="10.75" width="6" height="6" as="geometry" />
        </mxCell>
        <mxCell id="YYMgzYGZ-UMVyeNX6nmy-43" value="" style="triangle;whiteSpace=wrap;html=1;strokeColor=none;fillColor=#000000;rounded=1;arcSize=5;rotation=-90;container=0;" parent="gP5-K7wSO0AvluWSjb66-2" vertex="1">
          <mxGeometry x="30" y="15.75" width="6" height="6" as="geometry" />
        </mxCell>
        <mxCell id="YYMgzYGZ-UMVyeNX6nmy-44" value="" style="triangle;whiteSpace=wrap;html=1;strokeColor=none;fillColor=#000000;rounded=1;arcSize=5;rotation=90;container=0;" parent="gP5-K7wSO0AvluWSjb66-2" vertex="1">
          <mxGeometry x="30" y="22.75" width="6" height="6" as="geometry" />
        </mxCell>
        <mxCell id="YYMgzYGZ-UMVyeNX6nmy-45" value="" style="triangle;whiteSpace=wrap;html=1;strokeColor=none;fillColor=#000000;rounded=1;arcSize=5;rotation=-90;container=0;" parent="gP5-K7wSO0AvluWSjb66-2" vertex="1">
          <mxGeometry x="30" y="27.75" width="6" height="6" as="geometry" />
        </mxCell>
        <mxCell id="YYMgzYGZ-UMVyeNX6nmy-46" value="" style="triangle;whiteSpace=wrap;html=1;strokeColor=none;fillColor=#000000;rounded=1;arcSize=5;rotation=90;container=0;" parent="gP5-K7wSO0AvluWSjb66-2" vertex="1">
          <mxGeometry x="30" y="34.75" width="6" height="6" as="geometry" />
        </mxCell>
        <mxCell id="YYMgzYGZ-UMVyeNX6nmy-47" value="" style="triangle;whiteSpace=wrap;html=1;strokeColor=none;fillColor=#000000;rounded=1;arcSize=5;rotation=-90;container=0;" parent="gP5-K7wSO0AvluWSjb66-2" vertex="1">
          <mxGeometry x="36" y="9.75" width="6" height="6" as="geometry" />
        </mxCell>
        <mxCell id="YYMgzYGZ-UMVyeNX6nmy-48" value="" style="triangle;whiteSpace=wrap;html=1;strokeColor=none;fillColor=#000000;rounded=1;arcSize=5;rotation=90;container=0;" parent="gP5-K7wSO0AvluWSjb66-2" vertex="1">
          <mxGeometry x="36" y="16.75" width="6" height="6" as="geometry" />
        </mxCell>
        <mxCell id="YYMgzYGZ-UMVyeNX6nmy-49" value="" style="triangle;whiteSpace=wrap;html=1;strokeColor=none;fillColor=#000000;rounded=1;arcSize=5;rotation=-90;container=0;" parent="gP5-K7wSO0AvluWSjb66-2" vertex="1">
          <mxGeometry x="36" y="21.75" width="6" height="6" as="geometry" />
        </mxCell>
        <mxCell id="YYMgzYGZ-UMVyeNX6nmy-50" value="" style="triangle;whiteSpace=wrap;html=1;strokeColor=none;fillColor=#000000;rounded=1;arcSize=5;rotation=90;container=0;" parent="gP5-K7wSO0AvluWSjb66-2" vertex="1">
          <mxGeometry x="36" y="28.75" width="6" height="6" as="geometry" />
        </mxCell>
        <mxCell id="YYMgzYGZ-UMVyeNX6nmy-51" value="" style="triangle;whiteSpace=wrap;html=1;strokeColor=none;fillColor=#000000;rounded=1;arcSize=5;rotation=-90;container=0;" parent="gP5-K7wSO0AvluWSjb66-2" vertex="1">
          <mxGeometry x="36" y="33.75" width="6" height="6" as="geometry" />
        </mxCell>
        <mxCell id="YYMgzYGZ-UMVyeNX6nmy-52" value="" style="triangle;whiteSpace=wrap;html=1;strokeColor=none;fillColor=#000000;rounded=1;arcSize=5;rotation=90;container=0;" parent="gP5-K7wSO0AvluWSjb66-2" vertex="1">
          <mxGeometry x="36" y="4.75" width="6" height="6" as="geometry" />
        </mxCell>
        <mxCell id="YYMgzYGZ-UMVyeNX6nmy-55" value="" style="triangle;whiteSpace=wrap;html=1;strokeColor=none;fillColor=#000000;rounded=1;arcSize=5;rotation=-90;container=0;" parent="gP5-K7wSO0AvluWSjb66-2" vertex="1">
          <mxGeometry x="42" y="3.75" width="6" height="6" as="geometry" />
        </mxCell>
        <mxCell id="YYMgzYGZ-UMVyeNX6nmy-56" value="" style="triangle;whiteSpace=wrap;html=1;strokeColor=none;fillColor=#000000;rounded=1;arcSize=5;rotation=90;container=0;" parent="gP5-K7wSO0AvluWSjb66-2" vertex="1">
          <mxGeometry x="42" y="10.75" width="6" height="6" as="geometry" />
        </mxCell>
        <mxCell id="YYMgzYGZ-UMVyeNX6nmy-57" value="" style="triangle;whiteSpace=wrap;html=1;strokeColor=none;fillColor=#000000;rounded=1;arcSize=5;rotation=-90;container=0;" parent="gP5-K7wSO0AvluWSjb66-2" vertex="1">
          <mxGeometry x="42" y="15.75" width="6" height="6" as="geometry" />
        </mxCell>
        <mxCell id="YYMgzYGZ-UMVyeNX6nmy-58" value="" style="triangle;whiteSpace=wrap;html=1;strokeColor=none;fillColor=#000000;rounded=1;arcSize=5;rotation=90;container=0;" parent="gP5-K7wSO0AvluWSjb66-2" vertex="1">
          <mxGeometry x="42" y="22.75" width="6" height="6" as="geometry" />
        </mxCell>
        <mxCell id="YYMgzYGZ-UMVyeNX6nmy-59" value="" style="triangle;whiteSpace=wrap;html=1;strokeColor=none;fillColor=#000000;rounded=1;arcSize=5;rotation=-90;container=0;" parent="gP5-K7wSO0AvluWSjb66-2" vertex="1">
          <mxGeometry x="42" y="27.75" width="6" height="6" as="geometry" />
        </mxCell>
        <mxCell id="YYMgzYGZ-UMVyeNX6nmy-60" value="" style="triangle;whiteSpace=wrap;html=1;strokeColor=none;fillColor=#000000;rounded=1;arcSize=5;rotation=90;container=0;" parent="gP5-K7wSO0AvluWSjb66-2" vertex="1">
          <mxGeometry x="42" y="34.75" width="6" height="6" as="geometry" />
        </mxCell>
        <mxCell id="YYMgzYGZ-UMVyeNX6nmy-61" value="" style="triangle;whiteSpace=wrap;html=1;strokeColor=none;fillColor=#000000;rounded=1;arcSize=5;rotation=-90;container=0;" parent="gP5-K7wSO0AvluWSjb66-2" vertex="1">
          <mxGeometry x="48" y="9.75" width="6" height="6" as="geometry" />
        </mxCell>
        <mxCell id="YYMgzYGZ-UMVyeNX6nmy-62" value="" style="triangle;whiteSpace=wrap;html=1;strokeColor=none;fillColor=#000000;rounded=1;arcSize=5;rotation=90;container=0;" parent="gP5-K7wSO0AvluWSjb66-2" vertex="1">
          <mxGeometry x="48" y="16.75" width="6" height="6" as="geometry" />
        </mxCell>
        <mxCell id="YYMgzYGZ-UMVyeNX6nmy-63" value="" style="triangle;whiteSpace=wrap;html=1;strokeColor=none;fillColor=#000000;rounded=1;arcSize=5;rotation=-90;container=0;" parent="gP5-K7wSO0AvluWSjb66-2" vertex="1">
          <mxGeometry x="48" y="21.75" width="6" height="6" as="geometry" />
        </mxCell>
        <mxCell id="YYMgzYGZ-UMVyeNX6nmy-64" value="" style="triangle;whiteSpace=wrap;html=1;strokeColor=none;fillColor=#000000;rounded=1;arcSize=5;rotation=90;container=0;" parent="gP5-K7wSO0AvluWSjb66-2" vertex="1">
          <mxGeometry x="48" y="28.75" width="6" height="6" as="geometry" />
        </mxCell>
        <mxCell id="YYMgzYGZ-UMVyeNX6nmy-65" value="" style="triangle;whiteSpace=wrap;html=1;strokeColor=none;fillColor=#000000;rounded=1;arcSize=5;rotation=-90;container=0;" parent="gP5-K7wSO0AvluWSjb66-2" vertex="1">
          <mxGeometry x="48" y="33.75" width="6" height="6" as="geometry" />
        </mxCell>
        <mxCell id="YYMgzYGZ-UMVyeNX6nmy-66" value="" style="triangle;whiteSpace=wrap;html=1;strokeColor=none;fillColor=#000000;rounded=1;arcSize=5;rotation=90;container=0;" parent="gP5-K7wSO0AvluWSjb66-2" vertex="1">
          <mxGeometry x="48" y="4.75" width="6" height="6" as="geometry" />
        </mxCell>
        <mxCell id="YYMgzYGZ-UMVyeNX6nmy-67" value="" style="triangle;whiteSpace=wrap;html=1;strokeColor=none;fillColor=#000000;rounded=1;arcSize=5;rotation=-90;container=0;" parent="gP5-K7wSO0AvluWSjb66-2" vertex="1">
          <mxGeometry x="54" y="3.75" width="6" height="6" as="geometry" />
        </mxCell>
        <mxCell id="YYMgzYGZ-UMVyeNX6nmy-68" value="" style="triangle;whiteSpace=wrap;html=1;strokeColor=none;fillColor=#000000;rounded=1;arcSize=5;rotation=90;container=0;" parent="gP5-K7wSO0AvluWSjb66-2" vertex="1">
          <mxGeometry x="54" y="10.75" width="6" height="6" as="geometry" />
        </mxCell>
        <mxCell id="YYMgzYGZ-UMVyeNX6nmy-69" value="" style="triangle;whiteSpace=wrap;html=1;strokeColor=none;fillColor=#000000;rounded=1;arcSize=5;rotation=-90;container=0;" parent="gP5-K7wSO0AvluWSjb66-2" vertex="1">
          <mxGeometry x="54" y="15.75" width="6" height="6" as="geometry" />
        </mxCell>
        <mxCell id="YYMgzYGZ-UMVyeNX6nmy-70" value="" style="triangle;whiteSpace=wrap;html=1;strokeColor=none;fillColor=#000000;rounded=1;arcSize=5;rotation=90;container=0;" parent="gP5-K7wSO0AvluWSjb66-2" vertex="1">
          <mxGeometry x="54" y="22.75" width="6" height="6" as="geometry" />
        </mxCell>
        <mxCell id="YYMgzYGZ-UMVyeNX6nmy-71" value="" style="triangle;whiteSpace=wrap;html=1;strokeColor=none;fillColor=#000000;rounded=1;arcSize=5;rotation=-90;container=0;" parent="gP5-K7wSO0AvluWSjb66-2" vertex="1">
          <mxGeometry x="54" y="27.75" width="6" height="6" as="geometry" />
        </mxCell>
        <mxCell id="YYMgzYGZ-UMVyeNX6nmy-72" value="" style="triangle;whiteSpace=wrap;html=1;strokeColor=none;fillColor=#000000;rounded=1;arcSize=5;rotation=90;container=0;" parent="gP5-K7wSO0AvluWSjb66-2" vertex="1">
          <mxGeometry x="54" y="34.75" width="6" height="6" as="geometry" />
        </mxCell>
        <mxCell id="YYMgzYGZ-UMVyeNX6nmy-73" value="" style="triangle;whiteSpace=wrap;html=1;strokeColor=none;fillColor=#000000;rounded=1;arcSize=5;rotation=-90;container=0;" parent="gP5-K7wSO0AvluWSjb66-2" vertex="1">
          <mxGeometry x="60" y="9.75" width="6" height="6" as="geometry" />
        </mxCell>
        <mxCell id="YYMgzYGZ-UMVyeNX6nmy-74" value="" style="triangle;whiteSpace=wrap;html=1;strokeColor=none;fillColor=#000000;rounded=1;arcSize=5;rotation=90;container=0;" parent="gP5-K7wSO0AvluWSjb66-2" vertex="1">
          <mxGeometry x="60" y="16.75" width="6" height="6" as="geometry" />
        </mxCell>
        <mxCell id="YYMgzYGZ-UMVyeNX6nmy-75" value="" style="triangle;whiteSpace=wrap;html=1;strokeColor=none;fillColor=#000000;rounded=1;arcSize=5;rotation=-90;container=0;" parent="gP5-K7wSO0AvluWSjb66-2" vertex="1">
          <mxGeometry x="60" y="21.75" width="6" height="6" as="geometry" />
        </mxCell>
        <mxCell id="YYMgzYGZ-UMVyeNX6nmy-76" value="" style="triangle;whiteSpace=wrap;html=1;strokeColor=none;fillColor=#000000;rounded=1;arcSize=5;rotation=90;container=0;" parent="gP5-K7wSO0AvluWSjb66-2" vertex="1">
          <mxGeometry x="60" y="28.75" width="6" height="6" as="geometry" />
        </mxCell>
        <mxCell id="YYMgzYGZ-UMVyeNX6nmy-77" value="" style="triangle;whiteSpace=wrap;html=1;strokeColor=none;fillColor=#000000;rounded=1;arcSize=5;rotation=-90;container=0;" parent="gP5-K7wSO0AvluWSjb66-2" vertex="1">
          <mxGeometry x="60" y="33.75" width="6" height="6" as="geometry" />
        </mxCell>
        <mxCell id="YYMgzYGZ-UMVyeNX6nmy-78" value="" style="triangle;whiteSpace=wrap;html=1;strokeColor=none;fillColor=#000000;rounded=1;arcSize=5;rotation=90;container=0;" parent="gP5-K7wSO0AvluWSjb66-2" vertex="1">
          <mxGeometry x="60" y="4.75" width="6" height="6" as="geometry" />
        </mxCell>
        <mxCell id="YYMgzYGZ-UMVyeNX6nmy-79" value="" style="triangle;whiteSpace=wrap;html=1;strokeColor=none;fillColor=#000000;rounded=1;arcSize=5;rotation=-90;container=0;" parent="gP5-K7wSO0AvluWSjb66-2" vertex="1">
          <mxGeometry x="66" y="3.75" width="6" height="6" as="geometry" />
        </mxCell>
        <mxCell id="YYMgzYGZ-UMVyeNX6nmy-80" value="" style="triangle;whiteSpace=wrap;html=1;strokeColor=none;fillColor=#000000;rounded=1;arcSize=5;rotation=90;container=0;" parent="gP5-K7wSO0AvluWSjb66-2" vertex="1">
          <mxGeometry x="66" y="10.75" width="6" height="6" as="geometry" />
        </mxCell>
        <mxCell id="YYMgzYGZ-UMVyeNX6nmy-81" value="" style="triangle;whiteSpace=wrap;html=1;strokeColor=none;fillColor=#000000;rounded=1;arcSize=5;rotation=-90;container=0;" parent="gP5-K7wSO0AvluWSjb66-2" vertex="1">
          <mxGeometry x="66" y="15.75" width="6" height="6" as="geometry" />
        </mxCell>
        <mxCell id="YYMgzYGZ-UMVyeNX6nmy-82" value="" style="triangle;whiteSpace=wrap;html=1;strokeColor=none;fillColor=#000000;rounded=1;arcSize=5;rotation=90;container=0;" parent="gP5-K7wSO0AvluWSjb66-2" vertex="1">
          <mxGeometry x="66" y="22.75" width="6" height="6" as="geometry" />
        </mxCell>
        <mxCell id="YYMgzYGZ-UMVyeNX6nmy-83" value="" style="triangle;whiteSpace=wrap;html=1;strokeColor=none;fillColor=#000000;rounded=1;arcSize=5;rotation=-90;container=0;" parent="gP5-K7wSO0AvluWSjb66-2" vertex="1">
          <mxGeometry x="66" y="27.75" width="6" height="6" as="geometry" />
        </mxCell>
        <mxCell id="YYMgzYGZ-UMVyeNX6nmy-84" value="" style="triangle;whiteSpace=wrap;html=1;strokeColor=none;fillColor=#000000;rounded=1;arcSize=5;rotation=90;container=0;" parent="gP5-K7wSO0AvluWSjb66-2" vertex="1">
          <mxGeometry x="66" y="34.75" width="6" height="6" as="geometry" />
        </mxCell>
        <mxCell id="YYMgzYGZ-UMVyeNX6nmy-85" value="" style="triangle;whiteSpace=wrap;html=1;strokeColor=none;fillColor=#000000;rounded=1;arcSize=5;rotation=-90;container=0;" parent="gP5-K7wSO0AvluWSjb66-2" vertex="1">
          <mxGeometry x="72" y="9.75" width="6" height="6" as="geometry" />
        </mxCell>
        <mxCell id="YYMgzYGZ-UMVyeNX6nmy-86" value="" style="triangle;whiteSpace=wrap;html=1;strokeColor=none;fillColor=#000000;rounded=1;arcSize=5;rotation=90;container=0;" parent="gP5-K7wSO0AvluWSjb66-2" vertex="1">
          <mxGeometry x="72" y="16.75" width="6" height="6" as="geometry" />
        </mxCell>
        <mxCell id="YYMgzYGZ-UMVyeNX6nmy-87" value="" style="triangle;whiteSpace=wrap;html=1;strokeColor=none;fillColor=#000000;rounded=1;arcSize=5;rotation=-90;container=0;" parent="gP5-K7wSO0AvluWSjb66-2" vertex="1">
          <mxGeometry x="72" y="21.75" width="6" height="6" as="geometry" />
        </mxCell>
        <mxCell id="YYMgzYGZ-UMVyeNX6nmy-88" value="" style="triangle;whiteSpace=wrap;html=1;strokeColor=none;fillColor=#000000;rounded=1;arcSize=5;rotation=90;container=0;" parent="gP5-K7wSO0AvluWSjb66-2" vertex="1">
          <mxGeometry x="72" y="28.75" width="6" height="6" as="geometry" />
        </mxCell>
        <mxCell id="YYMgzYGZ-UMVyeNX6nmy-89" value="" style="triangle;whiteSpace=wrap;html=1;strokeColor=none;fillColor=#000000;rounded=1;arcSize=5;rotation=-90;container=0;" parent="gP5-K7wSO0AvluWSjb66-2" vertex="1">
          <mxGeometry x="72" y="33.75" width="6" height="6" as="geometry" />
        </mxCell>
        <mxCell id="YYMgzYGZ-UMVyeNX6nmy-90" value="" style="triangle;whiteSpace=wrap;html=1;strokeColor=none;fillColor=#000000;rounded=1;arcSize=5;rotation=90;container=0;" parent="gP5-K7wSO0AvluWSjb66-2" vertex="1">
          <mxGeometry x="72" y="4.75" width="6" height="6" as="geometry" />
        </mxCell>
        <mxCell id="YYMgzYGZ-UMVyeNX6nmy-91" value="" style="triangle;whiteSpace=wrap;html=1;strokeColor=none;fillColor=#000000;rounded=1;arcSize=5;rotation=-90;container=0;" parent="gP5-K7wSO0AvluWSjb66-2" vertex="1">
          <mxGeometry x="78" y="3.75" width="6" height="6" as="geometry" />
        </mxCell>
        <mxCell id="YYMgzYGZ-UMVyeNX6nmy-92" value="" style="triangle;whiteSpace=wrap;html=1;strokeColor=none;fillColor=#000000;rounded=1;arcSize=5;rotation=90;container=0;" parent="gP5-K7wSO0AvluWSjb66-2" vertex="1">
          <mxGeometry x="78" y="10.75" width="6" height="6" as="geometry" />
        </mxCell>
        <mxCell id="YYMgzYGZ-UMVyeNX6nmy-93" value="" style="triangle;whiteSpace=wrap;html=1;strokeColor=none;fillColor=#000000;rounded=1;arcSize=5;rotation=-90;container=0;" parent="gP5-K7wSO0AvluWSjb66-2" vertex="1">
          <mxGeometry x="78" y="15.75" width="6" height="6" as="geometry" />
        </mxCell>
        <mxCell id="YYMgzYGZ-UMVyeNX6nmy-94" value="" style="triangle;whiteSpace=wrap;html=1;strokeColor=none;fillColor=#000000;rounded=1;arcSize=5;rotation=90;container=0;" parent="gP5-K7wSO0AvluWSjb66-2" vertex="1">
          <mxGeometry x="78" y="22.75" width="6" height="6" as="geometry" />
        </mxCell>
        <mxCell id="YYMgzYGZ-UMVyeNX6nmy-95" value="" style="triangle;whiteSpace=wrap;html=1;strokeColor=none;fillColor=#000000;rounded=1;arcSize=5;rotation=-90;container=0;" parent="gP5-K7wSO0AvluWSjb66-2" vertex="1">
          <mxGeometry x="78" y="27.75" width="6" height="6" as="geometry" />
        </mxCell>
        <mxCell id="YYMgzYGZ-UMVyeNX6nmy-96" value="" style="triangle;whiteSpace=wrap;html=1;strokeColor=none;fillColor=#000000;rounded=1;arcSize=5;rotation=90;container=0;" parent="gP5-K7wSO0AvluWSjb66-2" vertex="1">
          <mxGeometry x="78" y="34.75" width="6" height="6" as="geometry" />
        </mxCell>
        <mxCell id="YYMgzYGZ-UMVyeNX6nmy-97" value="" style="triangle;whiteSpace=wrap;html=1;strokeColor=none;fillColor=#000000;rounded=1;arcSize=5;rotation=-90;container=0;" parent="gP5-K7wSO0AvluWSjb66-2" vertex="1">
          <mxGeometry x="84" y="9.75" width="6" height="6" as="geometry" />
        </mxCell>
        <mxCell id="YYMgzYGZ-UMVyeNX6nmy-98" value="" style="triangle;whiteSpace=wrap;html=1;strokeColor=none;fillColor=#000000;rounded=1;arcSize=5;rotation=90;container=0;" parent="gP5-K7wSO0AvluWSjb66-2" vertex="1">
          <mxGeometry x="84" y="16.75" width="6" height="6" as="geometry" />
        </mxCell>
        <mxCell id="YYMgzYGZ-UMVyeNX6nmy-99" value="" style="triangle;whiteSpace=wrap;html=1;strokeColor=none;fillColor=#000000;rounded=1;arcSize=5;rotation=-90;container=0;" parent="gP5-K7wSO0AvluWSjb66-2" vertex="1">
          <mxGeometry x="84" y="21.75" width="6" height="6" as="geometry" />
        </mxCell>
        <mxCell id="YYMgzYGZ-UMVyeNX6nmy-100" value="" style="triangle;whiteSpace=wrap;html=1;strokeColor=none;fillColor=#000000;rounded=1;arcSize=5;rotation=90;container=0;" parent="gP5-K7wSO0AvluWSjb66-2" vertex="1">
          <mxGeometry x="84" y="28.75" width="6" height="6" as="geometry" />
        </mxCell>
        <mxCell id="YYMgzYGZ-UMVyeNX6nmy-101" value="" style="triangle;whiteSpace=wrap;html=1;strokeColor=none;fillColor=#000000;rounded=1;arcSize=5;rotation=-90;container=0;" parent="gP5-K7wSO0AvluWSjb66-2" vertex="1">
          <mxGeometry x="84" y="33.75" width="6" height="6" as="geometry" />
        </mxCell>
        <mxCell id="YYMgzYGZ-UMVyeNX6nmy-102" value="" style="triangle;whiteSpace=wrap;html=1;strokeColor=none;fillColor=#000000;rounded=1;arcSize=5;rotation=90;container=0;" parent="gP5-K7wSO0AvluWSjb66-2" vertex="1">
          <mxGeometry x="84" y="4.75" width="6" height="6" as="geometry" />
        </mxCell>
        <mxCell id="YYMgzYGZ-UMVyeNX6nmy-103" value="" style="triangle;whiteSpace=wrap;html=1;strokeColor=none;fillColor=#000000;rounded=1;arcSize=5;rotation=-90;container=0;" parent="gP5-K7wSO0AvluWSjb66-2" vertex="1">
          <mxGeometry x="90" y="3.75" width="6" height="6" as="geometry" />
        </mxCell>
        <mxCell id="YYMgzYGZ-UMVyeNX6nmy-104" value="" style="triangle;whiteSpace=wrap;html=1;strokeColor=none;fillColor=#000000;rounded=1;arcSize=5;rotation=90;container=0;" parent="gP5-K7wSO0AvluWSjb66-2" vertex="1">
          <mxGeometry x="90" y="10.75" width="6" height="6" as="geometry" />
        </mxCell>
        <mxCell id="YYMgzYGZ-UMVyeNX6nmy-105" value="" style="triangle;whiteSpace=wrap;html=1;strokeColor=none;fillColor=#000000;rounded=1;arcSize=5;rotation=-90;container=0;" parent="gP5-K7wSO0AvluWSjb66-2" vertex="1">
          <mxGeometry x="90" y="15.75" width="6" height="6" as="geometry" />
        </mxCell>
        <mxCell id="YYMgzYGZ-UMVyeNX6nmy-106" value="" style="triangle;whiteSpace=wrap;html=1;strokeColor=none;fillColor=#000000;rounded=1;arcSize=5;rotation=90;container=0;" parent="gP5-K7wSO0AvluWSjb66-2" vertex="1">
          <mxGeometry x="90" y="22.75" width="6" height="6" as="geometry" />
        </mxCell>
        <mxCell id="YYMgzYGZ-UMVyeNX6nmy-107" value="" style="triangle;whiteSpace=wrap;html=1;strokeColor=none;fillColor=#000000;rounded=1;arcSize=5;rotation=-90;container=0;" parent="gP5-K7wSO0AvluWSjb66-2" vertex="1">
          <mxGeometry x="90" y="27.75" width="6" height="6" as="geometry" />
        </mxCell>
        <mxCell id="YYMgzYGZ-UMVyeNX6nmy-108" value="" style="triangle;whiteSpace=wrap;html=1;strokeColor=none;fillColor=#000000;rounded=1;arcSize=5;rotation=90;container=0;" parent="gP5-K7wSO0AvluWSjb66-2" vertex="1">
          <mxGeometry x="90" y="34.75" width="6" height="6" as="geometry" />
        </mxCell>
        <mxCell id="YYMgzYGZ-UMVyeNX6nmy-109" value="" style="triangle;whiteSpace=wrap;html=1;strokeColor=none;fillColor=#000000;rounded=1;arcSize=5;rotation=-90;container=0;" parent="gP5-K7wSO0AvluWSjb66-2" vertex="1">
          <mxGeometry x="96" y="9.75" width="6" height="6" as="geometry" />
        </mxCell>
        <mxCell id="YYMgzYGZ-UMVyeNX6nmy-110" value="" style="triangle;whiteSpace=wrap;html=1;strokeColor=none;fillColor=#000000;rounded=1;arcSize=5;rotation=90;container=0;" parent="gP5-K7wSO0AvluWSjb66-2" vertex="1">
          <mxGeometry x="96" y="16.75" width="6" height="6" as="geometry" />
        </mxCell>
        <mxCell id="YYMgzYGZ-UMVyeNX6nmy-111" value="" style="triangle;whiteSpace=wrap;html=1;strokeColor=none;fillColor=#000000;rounded=1;arcSize=5;rotation=-90;container=0;" parent="gP5-K7wSO0AvluWSjb66-2" vertex="1">
          <mxGeometry x="96" y="21.75" width="6" height="6" as="geometry" />
        </mxCell>
        <mxCell id="YYMgzYGZ-UMVyeNX6nmy-112" value="" style="triangle;whiteSpace=wrap;html=1;strokeColor=none;fillColor=#000000;rounded=1;arcSize=5;rotation=90;container=0;" parent="gP5-K7wSO0AvluWSjb66-2" vertex="1">
          <mxGeometry x="96" y="28.75" width="6" height="6" as="geometry" />
        </mxCell>
        <mxCell id="YYMgzYGZ-UMVyeNX6nmy-113" value="" style="triangle;whiteSpace=wrap;html=1;strokeColor=none;fillColor=#000000;rounded=1;arcSize=5;rotation=-90;container=0;" parent="gP5-K7wSO0AvluWSjb66-2" vertex="1">
          <mxGeometry x="96" y="33.75" width="6" height="6" as="geometry" />
        </mxCell>
        <mxCell id="YYMgzYGZ-UMVyeNX6nmy-114" value="" style="triangle;whiteSpace=wrap;html=1;strokeColor=none;fillColor=#000000;rounded=1;arcSize=5;rotation=90;container=0;" parent="gP5-K7wSO0AvluWSjb66-2" vertex="1">
          <mxGeometry x="96" y="4.75" width="6" height="6" as="geometry" />
        </mxCell>
        <mxCell id="YYMgzYGZ-UMVyeNX6nmy-115" value="" style="triangle;whiteSpace=wrap;html=1;strokeColor=none;fillColor=#000000;rounded=1;arcSize=5;rotation=-90;container=0;" parent="gP5-K7wSO0AvluWSjb66-2" vertex="1">
          <mxGeometry x="102" y="3.75" width="6" height="6" as="geometry" />
        </mxCell>
        <mxCell id="YYMgzYGZ-UMVyeNX6nmy-116" value="" style="triangle;whiteSpace=wrap;html=1;strokeColor=none;fillColor=#000000;rounded=1;arcSize=5;rotation=90;container=0;" parent="gP5-K7wSO0AvluWSjb66-2" vertex="1">
          <mxGeometry x="102" y="10.75" width="6" height="6" as="geometry" />
        </mxCell>
        <mxCell id="YYMgzYGZ-UMVyeNX6nmy-117" value="" style="triangle;whiteSpace=wrap;html=1;strokeColor=none;fillColor=#000000;rounded=1;arcSize=5;rotation=-90;container=0;" parent="gP5-K7wSO0AvluWSjb66-2" vertex="1">
          <mxGeometry x="102" y="15.75" width="6" height="6" as="geometry" />
        </mxCell>
        <mxCell id="YYMgzYGZ-UMVyeNX6nmy-118" value="" style="triangle;whiteSpace=wrap;html=1;strokeColor=none;fillColor=#000000;rounded=1;arcSize=5;rotation=90;container=0;" parent="gP5-K7wSO0AvluWSjb66-2" vertex="1">
          <mxGeometry x="102" y="22.75" width="6" height="6" as="geometry" />
        </mxCell>
        <mxCell id="YYMgzYGZ-UMVyeNX6nmy-119" value="" style="triangle;whiteSpace=wrap;html=1;strokeColor=none;fillColor=#000000;rounded=1;arcSize=5;rotation=-90;container=0;" parent="gP5-K7wSO0AvluWSjb66-2" vertex="1">
          <mxGeometry x="102" y="27.75" width="6" height="6" as="geometry" />
        </mxCell>
        <mxCell id="YYMgzYGZ-UMVyeNX6nmy-120" value="" style="triangle;whiteSpace=wrap;html=1;strokeColor=none;fillColor=#000000;rounded=1;arcSize=5;rotation=90;container=0;" parent="gP5-K7wSO0AvluWSjb66-2" vertex="1">
          <mxGeometry x="102" y="34.75" width="6" height="6" as="geometry" />
        </mxCell>
        <mxCell id="YYMgzYGZ-UMVyeNX6nmy-121" value="" style="triangle;whiteSpace=wrap;html=1;strokeColor=none;fillColor=#000000;rounded=1;arcSize=5;rotation=-90;container=0;" parent="gP5-K7wSO0AvluWSjb66-2" vertex="1">
          <mxGeometry x="108" y="9.75" width="6" height="6" as="geometry" />
        </mxCell>
        <mxCell id="YYMgzYGZ-UMVyeNX6nmy-122" value="" style="triangle;whiteSpace=wrap;html=1;strokeColor=none;fillColor=#000000;rounded=1;arcSize=5;rotation=90;container=0;" parent="gP5-K7wSO0AvluWSjb66-2" vertex="1">
          <mxGeometry x="108" y="16.75" width="6" height="6" as="geometry" />
        </mxCell>
        <mxCell id="YYMgzYGZ-UMVyeNX6nmy-123" value="" style="triangle;whiteSpace=wrap;html=1;strokeColor=none;fillColor=#000000;rounded=1;arcSize=5;rotation=-90;container=0;" parent="gP5-K7wSO0AvluWSjb66-2" vertex="1">
          <mxGeometry x="108" y="21.75" width="6" height="6" as="geometry" />
        </mxCell>
        <mxCell id="YYMgzYGZ-UMVyeNX6nmy-124" value="" style="triangle;whiteSpace=wrap;html=1;strokeColor=none;fillColor=#000000;rounded=1;arcSize=5;rotation=90;container=0;" parent="gP5-K7wSO0AvluWSjb66-2" vertex="1">
          <mxGeometry x="108" y="28.75" width="6" height="6" as="geometry" />
        </mxCell>
        <mxCell id="YYMgzYGZ-UMVyeNX6nmy-125" value="" style="triangle;whiteSpace=wrap;html=1;strokeColor=none;fillColor=#000000;rounded=1;arcSize=5;rotation=-90;container=0;" parent="gP5-K7wSO0AvluWSjb66-2" vertex="1">
          <mxGeometry x="108" y="33.75" width="6" height="6" as="geometry" />
        </mxCell>
        <mxCell id="YYMgzYGZ-UMVyeNX6nmy-126" value="" style="triangle;whiteSpace=wrap;html=1;strokeColor=none;fillColor=#000000;rounded=1;arcSize=5;rotation=90;container=0;" parent="gP5-K7wSO0AvluWSjb66-2" vertex="1">
          <mxGeometry x="108" y="4.75" width="6" height="6" as="geometry" />
        </mxCell>
        <mxCell id="YYMgzYGZ-UMVyeNX6nmy-127" value="" style="triangle;whiteSpace=wrap;html=1;strokeColor=none;fillColor=#000000;rounded=1;arcSize=5;rotation=-90;container=0;" parent="gP5-K7wSO0AvluWSjb66-2" vertex="1">
          <mxGeometry x="114" y="3.75" width="6" height="6" as="geometry" />
        </mxCell>
        <mxCell id="YYMgzYGZ-UMVyeNX6nmy-128" value="" style="triangle;whiteSpace=wrap;html=1;strokeColor=none;fillColor=#000000;rounded=1;arcSize=5;rotation=90;container=0;" parent="gP5-K7wSO0AvluWSjb66-2" vertex="1">
          <mxGeometry x="114" y="10.75" width="6" height="6" as="geometry" />
        </mxCell>
        <mxCell id="YYMgzYGZ-UMVyeNX6nmy-129" value="" style="triangle;whiteSpace=wrap;html=1;strokeColor=none;fillColor=#000000;rounded=1;arcSize=5;rotation=-90;container=0;" parent="gP5-K7wSO0AvluWSjb66-2" vertex="1">
          <mxGeometry x="114" y="15.75" width="6" height="6" as="geometry" />
        </mxCell>
        <mxCell id="YYMgzYGZ-UMVyeNX6nmy-130" value="" style="triangle;whiteSpace=wrap;html=1;strokeColor=none;fillColor=#000000;rounded=1;arcSize=5;rotation=90;container=0;" parent="gP5-K7wSO0AvluWSjb66-2" vertex="1">
          <mxGeometry x="114" y="22.75" width="6" height="6" as="geometry" />
        </mxCell>
        <mxCell id="YYMgzYGZ-UMVyeNX6nmy-131" value="" style="triangle;whiteSpace=wrap;html=1;strokeColor=none;fillColor=#000000;rounded=1;arcSize=5;rotation=-90;container=0;" parent="gP5-K7wSO0AvluWSjb66-2" vertex="1">
          <mxGeometry x="114" y="27.75" width="6" height="6" as="geometry" />
        </mxCell>
        <mxCell id="YYMgzYGZ-UMVyeNX6nmy-132" value="" style="triangle;whiteSpace=wrap;html=1;strokeColor=none;fillColor=#000000;rounded=1;arcSize=5;rotation=90;container=0;" parent="gP5-K7wSO0AvluWSjb66-2" vertex="1">
          <mxGeometry x="114" y="34.75" width="6" height="6" as="geometry" />
        </mxCell>
        <mxCell id="YYMgzYGZ-UMVyeNX6nmy-133" value="" style="triangle;whiteSpace=wrap;html=1;strokeColor=none;fillColor=#000000;rounded=1;arcSize=5;rotation=-90;container=0;" parent="gP5-K7wSO0AvluWSjb66-2" vertex="1">
          <mxGeometry x="120" y="9.75" width="6" height="6" as="geometry" />
        </mxCell>
        <mxCell id="YYMgzYGZ-UMVyeNX6nmy-134" value="" style="triangle;whiteSpace=wrap;html=1;strokeColor=none;fillColor=#000000;rounded=1;arcSize=5;rotation=90;container=0;" parent="gP5-K7wSO0AvluWSjb66-2" vertex="1">
          <mxGeometry x="120" y="16.75" width="6" height="6" as="geometry" />
        </mxCell>
        <mxCell id="YYMgzYGZ-UMVyeNX6nmy-135" value="" style="triangle;whiteSpace=wrap;html=1;strokeColor=none;fillColor=#000000;rounded=1;arcSize=5;rotation=-90;container=0;" parent="gP5-K7wSO0AvluWSjb66-2" vertex="1">
          <mxGeometry x="120" y="21.75" width="6" height="6" as="geometry" />
        </mxCell>
        <mxCell id="YYMgzYGZ-UMVyeNX6nmy-136" value="" style="triangle;whiteSpace=wrap;html=1;strokeColor=none;fillColor=#000000;rounded=1;arcSize=5;rotation=90;container=0;" parent="gP5-K7wSO0AvluWSjb66-2" vertex="1">
          <mxGeometry x="120" y="28.75" width="6" height="6" as="geometry" />
        </mxCell>
        <mxCell id="YYMgzYGZ-UMVyeNX6nmy-137" value="" style="triangle;whiteSpace=wrap;html=1;strokeColor=none;fillColor=#000000;rounded=1;arcSize=5;rotation=-90;container=0;" parent="gP5-K7wSO0AvluWSjb66-2" vertex="1">
          <mxGeometry x="120" y="33.75" width="6" height="6" as="geometry" />
        </mxCell>
        <mxCell id="YYMgzYGZ-UMVyeNX6nmy-138" value="" style="triangle;whiteSpace=wrap;html=1;strokeColor=none;fillColor=#000000;rounded=1;arcSize=5;rotation=90;container=0;" parent="gP5-K7wSO0AvluWSjb66-2" vertex="1">
          <mxGeometry x="120" y="4.75" width="6" height="6" as="geometry" />
        </mxCell>
        <mxCell id="YYMgzYGZ-UMVyeNX6nmy-139" value="" style="triangle;whiteSpace=wrap;html=1;strokeColor=none;fillColor=#000000;rounded=1;arcSize=5;rotation=-90;container=0;" parent="gP5-K7wSO0AvluWSjb66-2" vertex="1">
          <mxGeometry x="126" y="3.75" width="6" height="6" as="geometry" />
        </mxCell>
        <mxCell id="YYMgzYGZ-UMVyeNX6nmy-140" value="" style="triangle;whiteSpace=wrap;html=1;strokeColor=none;fillColor=#000000;rounded=1;arcSize=5;rotation=90;container=0;" parent="gP5-K7wSO0AvluWSjb66-2" vertex="1">
          <mxGeometry x="126" y="10.75" width="6" height="6" as="geometry" />
        </mxCell>
        <mxCell id="YYMgzYGZ-UMVyeNX6nmy-141" value="" style="triangle;whiteSpace=wrap;html=1;strokeColor=none;fillColor=#000000;rounded=1;arcSize=5;rotation=-90;container=0;" parent="gP5-K7wSO0AvluWSjb66-2" vertex="1">
          <mxGeometry x="126" y="15.75" width="6" height="6" as="geometry" />
        </mxCell>
        <mxCell id="YYMgzYGZ-UMVyeNX6nmy-142" value="" style="triangle;whiteSpace=wrap;html=1;strokeColor=none;fillColor=#000000;rounded=1;arcSize=5;rotation=90;container=0;" parent="gP5-K7wSO0AvluWSjb66-2" vertex="1">
          <mxGeometry x="126" y="22.75" width="6" height="6" as="geometry" />
        </mxCell>
        <mxCell id="YYMgzYGZ-UMVyeNX6nmy-143" value="" style="triangle;whiteSpace=wrap;html=1;strokeColor=none;fillColor=#000000;rounded=1;arcSize=5;rotation=-90;container=0;" parent="gP5-K7wSO0AvluWSjb66-2" vertex="1">
          <mxGeometry x="126" y="27.75" width="6" height="6" as="geometry" />
        </mxCell>
        <mxCell id="YYMgzYGZ-UMVyeNX6nmy-144" value="" style="triangle;whiteSpace=wrap;html=1;strokeColor=none;fillColor=#000000;rounded=1;arcSize=5;rotation=90;container=0;" parent="gP5-K7wSO0AvluWSjb66-2" vertex="1">
          <mxGeometry x="126" y="34.75" width="6" height="6" as="geometry" />
        </mxCell>
        <mxCell id="YYMgzYGZ-UMVyeNX6nmy-145" value="" style="triangle;whiteSpace=wrap;html=1;strokeColor=none;fillColor=#000000;rounded=1;arcSize=5;rotation=-90;container=0;" parent="gP5-K7wSO0AvluWSjb66-2" vertex="1">
          <mxGeometry x="132" y="9.75" width="6" height="6" as="geometry" />
        </mxCell>
        <mxCell id="YYMgzYGZ-UMVyeNX6nmy-146" value="" style="triangle;whiteSpace=wrap;html=1;strokeColor=none;fillColor=#000000;rounded=1;arcSize=5;rotation=90;container=0;" parent="gP5-K7wSO0AvluWSjb66-2" vertex="1">
          <mxGeometry x="132" y="16.75" width="6" height="6" as="geometry" />
        </mxCell>
        <mxCell id="YYMgzYGZ-UMVyeNX6nmy-147" value="" style="triangle;whiteSpace=wrap;html=1;strokeColor=none;fillColor=#000000;rounded=1;arcSize=5;rotation=-90;container=0;" parent="gP5-K7wSO0AvluWSjb66-2" vertex="1">
          <mxGeometry x="132" y="21.75" width="6" height="6" as="geometry" />
        </mxCell>
        <mxCell id="YYMgzYGZ-UMVyeNX6nmy-148" value="" style="triangle;whiteSpace=wrap;html=1;strokeColor=none;fillColor=#000000;rounded=1;arcSize=5;rotation=90;container=0;" parent="gP5-K7wSO0AvluWSjb66-2" vertex="1">
          <mxGeometry x="132" y="28.75" width="6" height="6" as="geometry" />
        </mxCell>
        <mxCell id="YYMgzYGZ-UMVyeNX6nmy-149" value="" style="triangle;whiteSpace=wrap;html=1;strokeColor=none;fillColor=#000000;rounded=1;arcSize=5;rotation=-90;container=0;" parent="gP5-K7wSO0AvluWSjb66-2" vertex="1">
          <mxGeometry x="132" y="33.75" width="6" height="6" as="geometry" />
        </mxCell>
        <mxCell id="YYMgzYGZ-UMVyeNX6nmy-150" value="" style="triangle;whiteSpace=wrap;html=1;strokeColor=none;fillColor=#000000;rounded=1;arcSize=5;rotation=90;container=0;" parent="gP5-K7wSO0AvluWSjb66-2" vertex="1">
          <mxGeometry x="132" y="4.75" width="6" height="6" as="geometry" />
        </mxCell>
        <mxCell id="YYMgzYGZ-UMVyeNX6nmy-151" value="" style="triangle;whiteSpace=wrap;html=1;strokeColor=none;fillColor=#000000;rounded=1;arcSize=5;rotation=-90;container=0;" parent="gP5-K7wSO0AvluWSjb66-2" vertex="1">
          <mxGeometry x="138" y="3.75" width="6" height="6" as="geometry" />
        </mxCell>
        <mxCell id="YYMgzYGZ-UMVyeNX6nmy-152" value="" style="triangle;whiteSpace=wrap;html=1;strokeColor=none;fillColor=#000000;rounded=1;arcSize=5;rotation=90;container=0;" parent="gP5-K7wSO0AvluWSjb66-2" vertex="1">
          <mxGeometry x="138" y="10.75" width="6" height="6" as="geometry" />
        </mxCell>
        <mxCell id="YYMgzYGZ-UMVyeNX6nmy-153" value="" style="triangle;whiteSpace=wrap;html=1;strokeColor=none;fillColor=#000000;rounded=1;arcSize=5;rotation=-90;container=0;" parent="gP5-K7wSO0AvluWSjb66-2" vertex="1">
          <mxGeometry x="138" y="15.75" width="6" height="6" as="geometry" />
        </mxCell>
        <mxCell id="YYMgzYGZ-UMVyeNX6nmy-154" value="" style="triangle;whiteSpace=wrap;html=1;strokeColor=none;fillColor=#000000;rounded=1;arcSize=5;rotation=90;container=0;" parent="gP5-K7wSO0AvluWSjb66-2" vertex="1">
          <mxGeometry x="138" y="22.75" width="6" height="6" as="geometry" />
        </mxCell>
        <mxCell id="YYMgzYGZ-UMVyeNX6nmy-155" value="" style="triangle;whiteSpace=wrap;html=1;strokeColor=none;fillColor=#000000;rounded=1;arcSize=5;rotation=-90;container=0;" parent="gP5-K7wSO0AvluWSjb66-2" vertex="1">
          <mxGeometry x="138" y="27.75" width="6" height="6" as="geometry" />
        </mxCell>
        <mxCell id="YYMgzYGZ-UMVyeNX6nmy-156" value="" style="triangle;whiteSpace=wrap;html=1;strokeColor=none;fillColor=#000000;rounded=1;arcSize=5;rotation=90;container=0;" parent="gP5-K7wSO0AvluWSjb66-2" vertex="1">
          <mxGeometry x="138" y="34.75" width="6" height="6" as="geometry" />
        </mxCell>
        <mxCell id="YYMgzYGZ-UMVyeNX6nmy-157" value="" style="triangle;whiteSpace=wrap;html=1;strokeColor=none;fillColor=#000000;rounded=1;arcSize=5;rotation=-90;container=0;" parent="gP5-K7wSO0AvluWSjb66-2" vertex="1">
          <mxGeometry x="144" y="9.75" width="6" height="6" as="geometry" />
        </mxCell>
        <mxCell id="YYMgzYGZ-UMVyeNX6nmy-158" value="" style="triangle;whiteSpace=wrap;html=1;strokeColor=none;fillColor=#000000;rounded=1;arcSize=5;rotation=90;container=0;" parent="gP5-K7wSO0AvluWSjb66-2" vertex="1">
          <mxGeometry x="144" y="16.75" width="6" height="6" as="geometry" />
        </mxCell>
        <mxCell id="YYMgzYGZ-UMVyeNX6nmy-159" value="" style="triangle;whiteSpace=wrap;html=1;strokeColor=none;fillColor=#000000;rounded=1;arcSize=5;rotation=-90;container=0;" parent="gP5-K7wSO0AvluWSjb66-2" vertex="1">
          <mxGeometry x="144" y="21.75" width="6" height="6" as="geometry" />
        </mxCell>
        <mxCell id="YYMgzYGZ-UMVyeNX6nmy-160" value="" style="triangle;whiteSpace=wrap;html=1;strokeColor=none;fillColor=#000000;rounded=1;arcSize=5;rotation=90;container=0;" parent="gP5-K7wSO0AvluWSjb66-2" vertex="1">
          <mxGeometry x="144" y="28.75" width="6" height="6" as="geometry" />
        </mxCell>
        <mxCell id="YYMgzYGZ-UMVyeNX6nmy-161" value="" style="triangle;whiteSpace=wrap;html=1;strokeColor=none;fillColor=#000000;rounded=1;arcSize=5;rotation=-90;container=0;" parent="gP5-K7wSO0AvluWSjb66-2" vertex="1">
          <mxGeometry x="144" y="33.75" width="6" height="6" as="geometry" />
        </mxCell>
        <mxCell id="YYMgzYGZ-UMVyeNX6nmy-162" value="" style="triangle;whiteSpace=wrap;html=1;strokeColor=none;fillColor=#000000;rounded=1;arcSize=5;rotation=90;container=0;" parent="gP5-K7wSO0AvluWSjb66-2" vertex="1">
          <mxGeometry x="144" y="4.75" width="6" height="6" as="geometry" />
        </mxCell>
        <mxCell id="YYMgzYGZ-UMVyeNX6nmy-163" value="" style="triangle;whiteSpace=wrap;html=1;strokeColor=none;fillColor=#000000;rounded=1;arcSize=5;rotation=-90;container=0;" parent="gP5-K7wSO0AvluWSjb66-2" vertex="1">
          <mxGeometry x="150" y="3.75" width="6" height="6" as="geometry" />
        </mxCell>
        <mxCell id="YYMgzYGZ-UMVyeNX6nmy-164" value="" style="triangle;whiteSpace=wrap;html=1;strokeColor=none;fillColor=#000000;rounded=1;arcSize=5;rotation=90;container=0;" parent="gP5-K7wSO0AvluWSjb66-2" vertex="1">
          <mxGeometry x="150" y="10.75" width="6" height="6" as="geometry" />
        </mxCell>
        <mxCell id="YYMgzYGZ-UMVyeNX6nmy-165" value="" style="triangle;whiteSpace=wrap;html=1;strokeColor=none;fillColor=#000000;rounded=1;arcSize=5;rotation=-90;container=0;" parent="gP5-K7wSO0AvluWSjb66-2" vertex="1">
          <mxGeometry x="150" y="15.75" width="6" height="6" as="geometry" />
        </mxCell>
        <mxCell id="YYMgzYGZ-UMVyeNX6nmy-166" value="" style="triangle;whiteSpace=wrap;html=1;strokeColor=none;fillColor=#000000;rounded=1;arcSize=5;rotation=90;container=0;" parent="gP5-K7wSO0AvluWSjb66-2" vertex="1">
          <mxGeometry x="150" y="22.75" width="6" height="6" as="geometry" />
        </mxCell>
        <mxCell id="YYMgzYGZ-UMVyeNX6nmy-167" value="" style="triangle;whiteSpace=wrap;html=1;strokeColor=none;fillColor=#000000;rounded=1;arcSize=5;rotation=-90;container=0;" parent="gP5-K7wSO0AvluWSjb66-2" vertex="1">
          <mxGeometry x="150" y="27.75" width="6" height="6" as="geometry" />
        </mxCell>
        <mxCell id="YYMgzYGZ-UMVyeNX6nmy-168" value="" style="triangle;whiteSpace=wrap;html=1;strokeColor=none;fillColor=#000000;rounded=1;arcSize=5;rotation=90;container=0;" parent="gP5-K7wSO0AvluWSjb66-2" vertex="1">
          <mxGeometry x="150" y="34.75" width="6" height="6" as="geometry" />
        </mxCell>
        <mxCell id="YYMgzYGZ-UMVyeNX6nmy-169" value="" style="triangle;whiteSpace=wrap;html=1;strokeColor=none;fillColor=#000000;rounded=1;arcSize=5;rotation=-90;container=0;" parent="gP5-K7wSO0AvluWSjb66-2" vertex="1">
          <mxGeometry x="156" y="9.75" width="6" height="6" as="geometry" />
        </mxCell>
        <mxCell id="YYMgzYGZ-UMVyeNX6nmy-170" value="" style="triangle;whiteSpace=wrap;html=1;strokeColor=none;fillColor=#000000;rounded=1;arcSize=5;rotation=90;container=0;" parent="gP5-K7wSO0AvluWSjb66-2" vertex="1">
          <mxGeometry x="156" y="16.75" width="6" height="6" as="geometry" />
        </mxCell>
        <mxCell id="YYMgzYGZ-UMVyeNX6nmy-171" value="" style="triangle;whiteSpace=wrap;html=1;strokeColor=none;fillColor=#000000;rounded=1;arcSize=5;rotation=-90;container=0;" parent="gP5-K7wSO0AvluWSjb66-2" vertex="1">
          <mxGeometry x="156" y="21.75" width="6" height="6" as="geometry" />
        </mxCell>
        <mxCell id="YYMgzYGZ-UMVyeNX6nmy-172" value="" style="triangle;whiteSpace=wrap;html=1;strokeColor=none;fillColor=#000000;rounded=1;arcSize=5;rotation=90;container=0;" parent="gP5-K7wSO0AvluWSjb66-2" vertex="1">
          <mxGeometry x="156" y="28.75" width="6" height="6" as="geometry" />
        </mxCell>
        <mxCell id="YYMgzYGZ-UMVyeNX6nmy-173" value="" style="triangle;whiteSpace=wrap;html=1;strokeColor=none;fillColor=#000000;rounded=1;arcSize=5;rotation=-90;container=0;" parent="gP5-K7wSO0AvluWSjb66-2" vertex="1">
          <mxGeometry x="156" y="33.75" width="6" height="6" as="geometry" />
        </mxCell>
        <mxCell id="YYMgzYGZ-UMVyeNX6nmy-174" value="" style="triangle;whiteSpace=wrap;html=1;strokeColor=none;fillColor=#000000;rounded=1;arcSize=5;rotation=90;container=0;" parent="gP5-K7wSO0AvluWSjb66-2" vertex="1">
          <mxGeometry x="156" y="4.75" width="6" height="6" as="geometry" />
        </mxCell>
        <mxCell id="YYMgzYGZ-UMVyeNX6nmy-175" value="" style="triangle;whiteSpace=wrap;html=1;strokeColor=none;fillColor=#000000;rounded=1;arcSize=5;rotation=-90;container=0;" parent="gP5-K7wSO0AvluWSjb66-2" vertex="1">
          <mxGeometry x="162" y="3.75" width="6" height="6" as="geometry" />
        </mxCell>
        <mxCell id="YYMgzYGZ-UMVyeNX6nmy-176" value="" style="triangle;whiteSpace=wrap;html=1;strokeColor=none;fillColor=#000000;rounded=1;arcSize=5;rotation=90;container=0;" parent="gP5-K7wSO0AvluWSjb66-2" vertex="1">
          <mxGeometry x="162" y="10.75" width="6" height="6" as="geometry" />
        </mxCell>
        <mxCell id="YYMgzYGZ-UMVyeNX6nmy-177" value="" style="triangle;whiteSpace=wrap;html=1;strokeColor=none;fillColor=#000000;rounded=1;arcSize=5;rotation=-90;container=0;" parent="gP5-K7wSO0AvluWSjb66-2" vertex="1">
          <mxGeometry x="162" y="15.75" width="6" height="6" as="geometry" />
        </mxCell>
        <mxCell id="YYMgzYGZ-UMVyeNX6nmy-178" value="" style="triangle;whiteSpace=wrap;html=1;strokeColor=none;fillColor=#000000;rounded=1;arcSize=5;rotation=90;container=0;" parent="gP5-K7wSO0AvluWSjb66-2" vertex="1">
          <mxGeometry x="162" y="22.75" width="6" height="6" as="geometry" />
        </mxCell>
        <mxCell id="YYMgzYGZ-UMVyeNX6nmy-179" value="" style="triangle;whiteSpace=wrap;html=1;strokeColor=none;fillColor=#000000;rounded=1;arcSize=5;rotation=-90;container=0;" parent="gP5-K7wSO0AvluWSjb66-2" vertex="1">
          <mxGeometry x="162" y="27.75" width="6" height="6" as="geometry" />
        </mxCell>
        <mxCell id="YYMgzYGZ-UMVyeNX6nmy-180" value="" style="triangle;whiteSpace=wrap;html=1;strokeColor=none;fillColor=#000000;rounded=1;arcSize=5;rotation=90;container=0;" parent="gP5-K7wSO0AvluWSjb66-2" vertex="1">
          <mxGeometry x="162" y="34.75" width="6" height="6" as="geometry" />
        </mxCell>
        <mxCell id="YYMgzYGZ-UMVyeNX6nmy-181" value="" style="triangle;whiteSpace=wrap;html=1;strokeColor=none;fillColor=#000000;rounded=1;arcSize=5;rotation=-90;container=0;" parent="gP5-K7wSO0AvluWSjb66-2" vertex="1">
          <mxGeometry x="168" y="9.75" width="6" height="6" as="geometry" />
        </mxCell>
        <mxCell id="YYMgzYGZ-UMVyeNX6nmy-182" value="" style="triangle;whiteSpace=wrap;html=1;strokeColor=none;fillColor=#000000;rounded=1;arcSize=5;rotation=90;container=0;" parent="gP5-K7wSO0AvluWSjb66-2" vertex="1">
          <mxGeometry x="168" y="16.75" width="6" height="6" as="geometry" />
        </mxCell>
        <mxCell id="YYMgzYGZ-UMVyeNX6nmy-183" value="" style="triangle;whiteSpace=wrap;html=1;strokeColor=none;fillColor=#000000;rounded=1;arcSize=5;rotation=-90;container=0;" parent="gP5-K7wSO0AvluWSjb66-2" vertex="1">
          <mxGeometry x="168" y="21.75" width="6" height="6" as="geometry" />
        </mxCell>
        <mxCell id="YYMgzYGZ-UMVyeNX6nmy-184" value="" style="triangle;whiteSpace=wrap;html=1;strokeColor=none;fillColor=#000000;rounded=1;arcSize=5;rotation=90;container=0;" parent="gP5-K7wSO0AvluWSjb66-2" vertex="1">
          <mxGeometry x="168" y="28.75" width="6" height="6" as="geometry" />
        </mxCell>
        <mxCell id="YYMgzYGZ-UMVyeNX6nmy-185" value="" style="triangle;whiteSpace=wrap;html=1;strokeColor=none;fillColor=#000000;rounded=1;arcSize=5;rotation=-90;container=0;" parent="gP5-K7wSO0AvluWSjb66-2" vertex="1">
          <mxGeometry x="168" y="33.75" width="6" height="6" as="geometry" />
        </mxCell>
        <mxCell id="YYMgzYGZ-UMVyeNX6nmy-186" value="" style="triangle;whiteSpace=wrap;html=1;strokeColor=none;fillColor=#000000;rounded=1;arcSize=5;rotation=90;container=0;" parent="gP5-K7wSO0AvluWSjb66-2" vertex="1">
          <mxGeometry x="168" y="4.75" width="6" height="6" as="geometry" />
        </mxCell>
        <mxCell id="YYMgzYGZ-UMVyeNX6nmy-187" value="" style="triangle;whiteSpace=wrap;html=1;strokeColor=none;fillColor=#000000;rounded=1;arcSize=5;rotation=-90;container=0;" parent="gP5-K7wSO0AvluWSjb66-2" vertex="1">
          <mxGeometry x="174" y="3.75" width="6" height="6" as="geometry" />
        </mxCell>
        <mxCell id="YYMgzYGZ-UMVyeNX6nmy-188" value="" style="triangle;whiteSpace=wrap;html=1;strokeColor=none;fillColor=#000000;rounded=1;arcSize=5;rotation=90;container=0;" parent="gP5-K7wSO0AvluWSjb66-2" vertex="1">
          <mxGeometry x="174" y="10.75" width="6" height="6" as="geometry" />
        </mxCell>
        <mxCell id="YYMgzYGZ-UMVyeNX6nmy-189" value="" style="triangle;whiteSpace=wrap;html=1;strokeColor=none;fillColor=#000000;rounded=1;arcSize=5;rotation=-90;container=0;" parent="gP5-K7wSO0AvluWSjb66-2" vertex="1">
          <mxGeometry x="174" y="15.75" width="6" height="6" as="geometry" />
        </mxCell>
        <mxCell id="YYMgzYGZ-UMVyeNX6nmy-190" value="" style="triangle;whiteSpace=wrap;html=1;strokeColor=none;fillColor=#000000;rounded=1;arcSize=5;rotation=90;container=0;" parent="gP5-K7wSO0AvluWSjb66-2" vertex="1">
          <mxGeometry x="174" y="22.75" width="6" height="6" as="geometry" />
        </mxCell>
        <mxCell id="YYMgzYGZ-UMVyeNX6nmy-191" value="" style="triangle;whiteSpace=wrap;html=1;strokeColor=none;fillColor=#000000;rounded=1;arcSize=5;rotation=-90;container=0;" parent="gP5-K7wSO0AvluWSjb66-2" vertex="1">
          <mxGeometry x="174" y="27.75" width="6" height="6" as="geometry" />
        </mxCell>
        <mxCell id="YYMgzYGZ-UMVyeNX6nmy-192" value="" style="triangle;whiteSpace=wrap;html=1;strokeColor=none;fillColor=#000000;rounded=1;arcSize=5;rotation=90;container=0;" parent="gP5-K7wSO0AvluWSjb66-2" vertex="1">
          <mxGeometry x="174" y="34.75" width="6" height="6" as="geometry" />
        </mxCell>
        <mxCell id="YYMgzYGZ-UMVyeNX6nmy-193" value="" style="triangle;whiteSpace=wrap;html=1;strokeColor=none;fillColor=#000000;rounded=1;arcSize=5;rotation=-90;container=0;" parent="gP5-K7wSO0AvluWSjb66-2" vertex="1">
          <mxGeometry x="180" y="9.75" width="6" height="6" as="geometry" />
        </mxCell>
        <mxCell id="YYMgzYGZ-UMVyeNX6nmy-194" value="" style="triangle;whiteSpace=wrap;html=1;strokeColor=none;fillColor=#000000;rounded=1;arcSize=5;rotation=90;container=0;" parent="gP5-K7wSO0AvluWSjb66-2" vertex="1">
          <mxGeometry x="180" y="16.75" width="6" height="6" as="geometry" />
        </mxCell>
        <mxCell id="YYMgzYGZ-UMVyeNX6nmy-195" value="" style="triangle;whiteSpace=wrap;html=1;strokeColor=none;fillColor=#000000;rounded=1;arcSize=5;rotation=-90;container=0;" parent="gP5-K7wSO0AvluWSjb66-2" vertex="1">
          <mxGeometry x="180" y="21.75" width="6" height="6" as="geometry" />
        </mxCell>
        <mxCell id="YYMgzYGZ-UMVyeNX6nmy-196" value="" style="triangle;whiteSpace=wrap;html=1;strokeColor=none;fillColor=#000000;rounded=1;arcSize=5;rotation=90;container=0;" parent="gP5-K7wSO0AvluWSjb66-2" vertex="1">
          <mxGeometry x="180" y="28.75" width="6" height="6" as="geometry" />
        </mxCell>
        <mxCell id="YYMgzYGZ-UMVyeNX6nmy-197" value="" style="triangle;whiteSpace=wrap;html=1;strokeColor=none;fillColor=#000000;rounded=1;arcSize=5;rotation=-90;container=0;" parent="gP5-K7wSO0AvluWSjb66-2" vertex="1">
          <mxGeometry x="180" y="33.75" width="6" height="6" as="geometry" />
        </mxCell>
        <mxCell id="YYMgzYGZ-UMVyeNX6nmy-198" value="" style="triangle;whiteSpace=wrap;html=1;strokeColor=none;fillColor=#000000;rounded=1;arcSize=5;rotation=90;container=0;" parent="gP5-K7wSO0AvluWSjb66-2" vertex="1">
          <mxGeometry x="180" y="4.75" width="6" height="6" as="geometry" />
        </mxCell>
        <mxCell id="YYMgzYGZ-UMVyeNX6nmy-199" value="" style="triangle;whiteSpace=wrap;html=1;strokeColor=none;fillColor=#000000;rounded=1;arcSize=5;rotation=-90;container=0;" parent="gP5-K7wSO0AvluWSjb66-2" vertex="1">
          <mxGeometry x="186" y="3.75" width="6" height="6" as="geometry" />
        </mxCell>
        <mxCell id="YYMgzYGZ-UMVyeNX6nmy-200" value="" style="triangle;whiteSpace=wrap;html=1;strokeColor=none;fillColor=#000000;rounded=1;arcSize=5;rotation=90;container=0;" parent="gP5-K7wSO0AvluWSjb66-2" vertex="1">
          <mxGeometry x="186" y="10.75" width="6" height="6" as="geometry" />
        </mxCell>
        <mxCell id="YYMgzYGZ-UMVyeNX6nmy-201" value="" style="triangle;whiteSpace=wrap;html=1;strokeColor=none;fillColor=#000000;rounded=1;arcSize=5;rotation=-90;container=0;" parent="gP5-K7wSO0AvluWSjb66-2" vertex="1">
          <mxGeometry x="186" y="15.75" width="6" height="6" as="geometry" />
        </mxCell>
        <mxCell id="YYMgzYGZ-UMVyeNX6nmy-202" value="" style="triangle;whiteSpace=wrap;html=1;strokeColor=none;fillColor=#000000;rounded=1;arcSize=5;rotation=90;container=0;" parent="gP5-K7wSO0AvluWSjb66-2" vertex="1">
          <mxGeometry x="186" y="22.75" width="6" height="6" as="geometry" />
        </mxCell>
        <mxCell id="YYMgzYGZ-UMVyeNX6nmy-203" value="" style="triangle;whiteSpace=wrap;html=1;strokeColor=none;fillColor=#000000;rounded=1;arcSize=5;rotation=-90;container=0;" parent="gP5-K7wSO0AvluWSjb66-2" vertex="1">
          <mxGeometry x="186" y="27.75" width="6" height="6" as="geometry" />
        </mxCell>
        <mxCell id="YYMgzYGZ-UMVyeNX6nmy-204" value="" style="triangle;whiteSpace=wrap;html=1;strokeColor=none;fillColor=#000000;rounded=1;arcSize=5;rotation=90;container=0;" parent="gP5-K7wSO0AvluWSjb66-2" vertex="1">
          <mxGeometry x="186" y="34.75" width="6" height="6" as="geometry" />
        </mxCell>
        <mxCell id="YYMgzYGZ-UMVyeNX6nmy-205" value="" style="triangle;whiteSpace=wrap;html=1;strokeColor=none;fillColor=#000000;rounded=1;arcSize=5;rotation=-90;container=0;" parent="gP5-K7wSO0AvluWSjb66-2" vertex="1">
          <mxGeometry x="192" y="9.75" width="6" height="6" as="geometry" />
        </mxCell>
        <mxCell id="YYMgzYGZ-UMVyeNX6nmy-206" value="" style="triangle;whiteSpace=wrap;html=1;strokeColor=none;fillColor=#000000;rounded=1;arcSize=5;rotation=90;container=0;" parent="gP5-K7wSO0AvluWSjb66-2" vertex="1">
          <mxGeometry x="192" y="16.75" width="6" height="6" as="geometry" />
        </mxCell>
        <mxCell id="YYMgzYGZ-UMVyeNX6nmy-207" value="" style="triangle;whiteSpace=wrap;html=1;strokeColor=none;fillColor=#000000;rounded=1;arcSize=5;rotation=-90;container=0;" parent="gP5-K7wSO0AvluWSjb66-2" vertex="1">
          <mxGeometry x="192" y="21.75" width="6" height="6" as="geometry" />
        </mxCell>
        <mxCell id="YYMgzYGZ-UMVyeNX6nmy-208" value="" style="triangle;whiteSpace=wrap;html=1;strokeColor=none;fillColor=#000000;rounded=1;arcSize=5;rotation=90;container=0;" parent="gP5-K7wSO0AvluWSjb66-2" vertex="1">
          <mxGeometry x="192" y="28.75" width="6" height="6" as="geometry" />
        </mxCell>
        <mxCell id="YYMgzYGZ-UMVyeNX6nmy-209" value="" style="triangle;whiteSpace=wrap;html=1;strokeColor=none;fillColor=#000000;rounded=1;arcSize=5;rotation=-90;container=0;" parent="gP5-K7wSO0AvluWSjb66-2" vertex="1">
          <mxGeometry x="192" y="33.75" width="6" height="6" as="geometry" />
        </mxCell>
        <mxCell id="YYMgzYGZ-UMVyeNX6nmy-210" value="" style="triangle;whiteSpace=wrap;html=1;strokeColor=none;fillColor=#000000;rounded=1;arcSize=5;rotation=90;container=0;" parent="gP5-K7wSO0AvluWSjb66-2" vertex="1">
          <mxGeometry x="192" y="4.75" width="6" height="6" as="geometry" />
        </mxCell>
        <mxCell id="YYMgzYGZ-UMVyeNX6nmy-211" value="" style="triangle;whiteSpace=wrap;html=1;strokeColor=none;fillColor=#000000;rounded=1;arcSize=5;rotation=-90;container=0;" parent="gP5-K7wSO0AvluWSjb66-2" vertex="1">
          <mxGeometry x="198" y="3.75" width="6" height="6" as="geometry" />
        </mxCell>
        <mxCell id="YYMgzYGZ-UMVyeNX6nmy-212" value="" style="triangle;whiteSpace=wrap;html=1;strokeColor=none;fillColor=#000000;rounded=1;arcSize=5;rotation=90;container=0;" parent="gP5-K7wSO0AvluWSjb66-2" vertex="1">
          <mxGeometry x="198" y="10.75" width="6" height="6" as="geometry" />
        </mxCell>
        <mxCell id="YYMgzYGZ-UMVyeNX6nmy-213" value="" style="triangle;whiteSpace=wrap;html=1;strokeColor=none;fillColor=#000000;rounded=1;arcSize=5;rotation=-90;container=0;" parent="gP5-K7wSO0AvluWSjb66-2" vertex="1">
          <mxGeometry x="198" y="15.75" width="6" height="6" as="geometry" />
        </mxCell>
        <mxCell id="YYMgzYGZ-UMVyeNX6nmy-214" value="" style="triangle;whiteSpace=wrap;html=1;strokeColor=none;fillColor=#000000;rounded=1;arcSize=5;rotation=90;container=0;" parent="gP5-K7wSO0AvluWSjb66-2" vertex="1">
          <mxGeometry x="198" y="22.75" width="6" height="6" as="geometry" />
        </mxCell>
        <mxCell id="YYMgzYGZ-UMVyeNX6nmy-215" value="" style="triangle;whiteSpace=wrap;html=1;strokeColor=none;fillColor=#000000;rounded=1;arcSize=5;rotation=-90;container=0;" parent="gP5-K7wSO0AvluWSjb66-2" vertex="1">
          <mxGeometry x="198" y="27.75" width="6" height="6" as="geometry" />
        </mxCell>
        <mxCell id="YYMgzYGZ-UMVyeNX6nmy-216" value="" style="triangle;whiteSpace=wrap;html=1;strokeColor=none;fillColor=#000000;rounded=1;arcSize=5;rotation=90;container=0;" parent="gP5-K7wSO0AvluWSjb66-2" vertex="1">
          <mxGeometry x="198" y="34.75" width="6" height="6" as="geometry" />
        </mxCell>
        <mxCell id="YYMgzYGZ-UMVyeNX6nmy-217" value="" style="triangle;whiteSpace=wrap;html=1;strokeColor=none;fillColor=#000000;rounded=1;arcSize=5;rotation=-90;container=0;" parent="gP5-K7wSO0AvluWSjb66-2" vertex="1">
          <mxGeometry x="204" y="9.75" width="6" height="6" as="geometry" />
        </mxCell>
        <mxCell id="YYMgzYGZ-UMVyeNX6nmy-218" value="" style="triangle;whiteSpace=wrap;html=1;strokeColor=none;fillColor=#000000;rounded=1;arcSize=5;rotation=90;container=0;" parent="gP5-K7wSO0AvluWSjb66-2" vertex="1">
          <mxGeometry x="204" y="16.75" width="6" height="6" as="geometry" />
        </mxCell>
        <mxCell id="YYMgzYGZ-UMVyeNX6nmy-219" value="" style="triangle;whiteSpace=wrap;html=1;strokeColor=none;fillColor=#000000;rounded=1;arcSize=5;rotation=-90;container=0;" parent="gP5-K7wSO0AvluWSjb66-2" vertex="1">
          <mxGeometry x="204" y="21.75" width="6" height="6" as="geometry" />
        </mxCell>
        <mxCell id="YYMgzYGZ-UMVyeNX6nmy-220" value="" style="triangle;whiteSpace=wrap;html=1;strokeColor=none;fillColor=#000000;rounded=1;arcSize=5;rotation=90;container=0;" parent="gP5-K7wSO0AvluWSjb66-2" vertex="1">
          <mxGeometry x="204" y="28.75" width="6" height="6" as="geometry" />
        </mxCell>
        <mxCell id="YYMgzYGZ-UMVyeNX6nmy-221" value="" style="triangle;whiteSpace=wrap;html=1;strokeColor=none;fillColor=#000000;rounded=1;arcSize=5;rotation=-90;container=0;" parent="gP5-K7wSO0AvluWSjb66-2" vertex="1">
          <mxGeometry x="204" y="33.75" width="6" height="6" as="geometry" />
        </mxCell>
        <mxCell id="YYMgzYGZ-UMVyeNX6nmy-222" value="" style="triangle;whiteSpace=wrap;html=1;strokeColor=none;fillColor=#000000;rounded=1;arcSize=5;rotation=90;container=0;" parent="gP5-K7wSO0AvluWSjb66-2" vertex="1">
          <mxGeometry x="204" y="4.75" width="6" height="6" as="geometry" />
        </mxCell>
        <mxCell id="YYMgzYGZ-UMVyeNX6nmy-223" value="" style="triangle;whiteSpace=wrap;html=1;strokeColor=none;fillColor=#000000;rounded=1;arcSize=5;rotation=-90;container=0;" parent="gP5-K7wSO0AvluWSjb66-2" vertex="1">
          <mxGeometry x="210" y="3.75" width="6" height="6" as="geometry" />
        </mxCell>
        <mxCell id="YYMgzYGZ-UMVyeNX6nmy-224" value="" style="triangle;whiteSpace=wrap;html=1;strokeColor=none;fillColor=#000000;rounded=1;arcSize=5;rotation=90;container=0;" parent="gP5-K7wSO0AvluWSjb66-2" vertex="1">
          <mxGeometry x="210" y="10.75" width="6" height="6" as="geometry" />
        </mxCell>
        <mxCell id="YYMgzYGZ-UMVyeNX6nmy-225" value="" style="triangle;whiteSpace=wrap;html=1;strokeColor=none;fillColor=#000000;rounded=1;arcSize=5;rotation=-90;container=0;" parent="gP5-K7wSO0AvluWSjb66-2" vertex="1">
          <mxGeometry x="210" y="15.75" width="6" height="6" as="geometry" />
        </mxCell>
        <mxCell id="YYMgzYGZ-UMVyeNX6nmy-226" value="" style="triangle;whiteSpace=wrap;html=1;strokeColor=none;fillColor=#000000;rounded=1;arcSize=5;rotation=90;container=0;" parent="gP5-K7wSO0AvluWSjb66-2" vertex="1">
          <mxGeometry x="210" y="22.75" width="6" height="6" as="geometry" />
        </mxCell>
        <mxCell id="YYMgzYGZ-UMVyeNX6nmy-227" value="" style="triangle;whiteSpace=wrap;html=1;strokeColor=none;fillColor=#000000;rounded=1;arcSize=5;rotation=-90;container=0;" parent="gP5-K7wSO0AvluWSjb66-2" vertex="1">
          <mxGeometry x="210" y="27.75" width="6" height="6" as="geometry" />
        </mxCell>
        <mxCell id="YYMgzYGZ-UMVyeNX6nmy-228" value="" style="triangle;whiteSpace=wrap;html=1;strokeColor=none;fillColor=#000000;rounded=1;arcSize=5;rotation=90;container=0;" parent="gP5-K7wSO0AvluWSjb66-2" vertex="1">
          <mxGeometry x="210" y="34.75" width="6" height="6" as="geometry" />
        </mxCell>
        <mxCell id="YYMgzYGZ-UMVyeNX6nmy-229" value="" style="triangle;whiteSpace=wrap;html=1;strokeColor=none;fillColor=#000000;rounded=1;arcSize=5;rotation=-90;container=0;" parent="gP5-K7wSO0AvluWSjb66-2" vertex="1">
          <mxGeometry x="216" y="9.75" width="6" height="6" as="geometry" />
        </mxCell>
        <mxCell id="YYMgzYGZ-UMVyeNX6nmy-230" value="" style="triangle;whiteSpace=wrap;html=1;strokeColor=none;fillColor=#000000;rounded=1;arcSize=5;rotation=90;container=0;" parent="gP5-K7wSO0AvluWSjb66-2" vertex="1">
          <mxGeometry x="216" y="16.75" width="6" height="6" as="geometry" />
        </mxCell>
        <mxCell id="YYMgzYGZ-UMVyeNX6nmy-231" value="" style="triangle;whiteSpace=wrap;html=1;strokeColor=none;fillColor=#000000;rounded=1;arcSize=5;rotation=-90;container=0;" parent="gP5-K7wSO0AvluWSjb66-2" vertex="1">
          <mxGeometry x="216" y="21.75" width="6" height="6" as="geometry" />
        </mxCell>
        <mxCell id="YYMgzYGZ-UMVyeNX6nmy-232" value="" style="triangle;whiteSpace=wrap;html=1;strokeColor=none;fillColor=#000000;rounded=1;arcSize=5;rotation=90;container=0;" parent="gP5-K7wSO0AvluWSjb66-2" vertex="1">
          <mxGeometry x="216" y="28.75" width="6" height="6" as="geometry" />
        </mxCell>
        <mxCell id="YYMgzYGZ-UMVyeNX6nmy-233" value="" style="triangle;whiteSpace=wrap;html=1;strokeColor=none;fillColor=#000000;rounded=1;arcSize=5;rotation=-90;container=0;" parent="gP5-K7wSO0AvluWSjb66-2" vertex="1">
          <mxGeometry x="216" y="33.75" width="6" height="6" as="geometry" />
        </mxCell>
        <mxCell id="YYMgzYGZ-UMVyeNX6nmy-234" value="" style="triangle;whiteSpace=wrap;html=1;strokeColor=none;fillColor=#000000;rounded=1;arcSize=5;rotation=90;container=0;" parent="gP5-K7wSO0AvluWSjb66-2" vertex="1">
          <mxGeometry x="216" y="4.75" width="6" height="6" as="geometry" />
        </mxCell>
        <mxCell id="YYMgzYGZ-UMVyeNX6nmy-235" value="" style="triangle;whiteSpace=wrap;html=1;strokeColor=none;fillColor=#000000;rounded=1;arcSize=5;rotation=-90;container=0;" parent="gP5-K7wSO0AvluWSjb66-2" vertex="1">
          <mxGeometry x="222" y="3.75" width="6" height="6" as="geometry" />
        </mxCell>
        <mxCell id="YYMgzYGZ-UMVyeNX6nmy-236" value="" style="triangle;whiteSpace=wrap;html=1;strokeColor=none;fillColor=#000000;rounded=1;arcSize=5;rotation=90;container=0;" parent="gP5-K7wSO0AvluWSjb66-2" vertex="1">
          <mxGeometry x="222" y="10.75" width="6" height="6" as="geometry" />
        </mxCell>
        <mxCell id="YYMgzYGZ-UMVyeNX6nmy-237" value="" style="triangle;whiteSpace=wrap;html=1;strokeColor=none;fillColor=#000000;rounded=1;arcSize=5;rotation=-90;container=0;" parent="gP5-K7wSO0AvluWSjb66-2" vertex="1">
          <mxGeometry x="222" y="15.75" width="6" height="6" as="geometry" />
        </mxCell>
        <mxCell id="YYMgzYGZ-UMVyeNX6nmy-238" value="" style="triangle;whiteSpace=wrap;html=1;strokeColor=none;fillColor=#000000;rounded=1;arcSize=5;rotation=90;container=0;" parent="gP5-K7wSO0AvluWSjb66-2" vertex="1">
          <mxGeometry x="222" y="22.75" width="6" height="6" as="geometry" />
        </mxCell>
        <mxCell id="YYMgzYGZ-UMVyeNX6nmy-239" value="" style="triangle;whiteSpace=wrap;html=1;strokeColor=none;fillColor=#000000;rounded=1;arcSize=5;rotation=-90;container=0;" parent="gP5-K7wSO0AvluWSjb66-2" vertex="1">
          <mxGeometry x="222" y="27.75" width="6" height="6" as="geometry" />
        </mxCell>
        <mxCell id="YYMgzYGZ-UMVyeNX6nmy-240" value="" style="triangle;whiteSpace=wrap;html=1;strokeColor=none;fillColor=#000000;rounded=1;arcSize=5;rotation=90;container=0;" parent="gP5-K7wSO0AvluWSjb66-2" vertex="1">
          <mxGeometry x="222" y="34.75" width="6" height="6" as="geometry" />
        </mxCell>
        <mxCell id="YYMgzYGZ-UMVyeNX6nmy-241" value="" style="triangle;whiteSpace=wrap;html=1;strokeColor=none;fillColor=#000000;rounded=1;arcSize=5;rotation=-90;container=0;" parent="gP5-K7wSO0AvluWSjb66-2" vertex="1">
          <mxGeometry x="228" y="9.75" width="6" height="6" as="geometry" />
        </mxCell>
        <mxCell id="YYMgzYGZ-UMVyeNX6nmy-242" value="" style="triangle;whiteSpace=wrap;html=1;strokeColor=none;fillColor=#000000;rounded=1;arcSize=5;rotation=90;container=0;" parent="gP5-K7wSO0AvluWSjb66-2" vertex="1">
          <mxGeometry x="228" y="16.75" width="6" height="6" as="geometry" />
        </mxCell>
        <mxCell id="YYMgzYGZ-UMVyeNX6nmy-243" value="" style="triangle;whiteSpace=wrap;html=1;strokeColor=none;fillColor=#000000;rounded=1;arcSize=5;rotation=-90;container=0;" parent="gP5-K7wSO0AvluWSjb66-2" vertex="1">
          <mxGeometry x="228" y="21.75" width="6" height="6" as="geometry" />
        </mxCell>
        <mxCell id="YYMgzYGZ-UMVyeNX6nmy-244" value="" style="triangle;whiteSpace=wrap;html=1;strokeColor=none;fillColor=#000000;rounded=1;arcSize=5;rotation=90;container=0;" parent="gP5-K7wSO0AvluWSjb66-2" vertex="1">
          <mxGeometry x="228" y="28.75" width="6" height="6" as="geometry" />
        </mxCell>
        <mxCell id="YYMgzYGZ-UMVyeNX6nmy-245" value="" style="triangle;whiteSpace=wrap;html=1;strokeColor=none;fillColor=#000000;rounded=1;arcSize=5;rotation=-90;container=0;" parent="gP5-K7wSO0AvluWSjb66-2" vertex="1">
          <mxGeometry x="228" y="33.75" width="6" height="6" as="geometry" />
        </mxCell>
        <mxCell id="YYMgzYGZ-UMVyeNX6nmy-246" value="" style="triangle;whiteSpace=wrap;html=1;strokeColor=none;fillColor=#000000;rounded=1;arcSize=5;rotation=90;container=0;" parent="gP5-K7wSO0AvluWSjb66-2" vertex="1">
          <mxGeometry x="228" y="4.75" width="6" height="6" as="geometry" />
        </mxCell>
        <mxCell id="YYMgzYGZ-UMVyeNX6nmy-247" value="" style="triangle;whiteSpace=wrap;html=1;strokeColor=none;fillColor=#000000;rounded=1;arcSize=5;rotation=-90;container=0;" parent="gP5-K7wSO0AvluWSjb66-2" vertex="1">
          <mxGeometry x="234" y="3.75" width="6" height="6" as="geometry" />
        </mxCell>
        <mxCell id="YYMgzYGZ-UMVyeNX6nmy-248" value="" style="triangle;whiteSpace=wrap;html=1;strokeColor=none;fillColor=#000000;rounded=1;arcSize=5;rotation=90;container=0;" parent="gP5-K7wSO0AvluWSjb66-2" vertex="1">
          <mxGeometry x="234" y="10.75" width="6" height="6" as="geometry" />
        </mxCell>
        <mxCell id="YYMgzYGZ-UMVyeNX6nmy-249" value="" style="triangle;whiteSpace=wrap;html=1;strokeColor=none;fillColor=#000000;rounded=1;arcSize=5;rotation=-90;container=0;" parent="gP5-K7wSO0AvluWSjb66-2" vertex="1">
          <mxGeometry x="234" y="15.75" width="6" height="6" as="geometry" />
        </mxCell>
        <mxCell id="YYMgzYGZ-UMVyeNX6nmy-250" value="" style="triangle;whiteSpace=wrap;html=1;strokeColor=none;fillColor=#000000;rounded=1;arcSize=5;rotation=90;container=0;" parent="gP5-K7wSO0AvluWSjb66-2" vertex="1">
          <mxGeometry x="234" y="22.75" width="6" height="6" as="geometry" />
        </mxCell>
        <mxCell id="YYMgzYGZ-UMVyeNX6nmy-251" value="" style="triangle;whiteSpace=wrap;html=1;strokeColor=none;fillColor=#000000;rounded=1;arcSize=5;rotation=-90;container=0;" parent="gP5-K7wSO0AvluWSjb66-2" vertex="1">
          <mxGeometry x="234" y="27.75" width="6" height="6" as="geometry" />
        </mxCell>
        <mxCell id="YYMgzYGZ-UMVyeNX6nmy-252" value="" style="triangle;whiteSpace=wrap;html=1;strokeColor=none;fillColor=#000000;rounded=1;arcSize=5;rotation=90;container=0;" parent="gP5-K7wSO0AvluWSjb66-2" vertex="1">
          <mxGeometry x="234" y="34.75" width="6" height="6" as="geometry" />
        </mxCell>
        <mxCell id="YYMgzYGZ-UMVyeNX6nmy-253" value="" style="triangle;whiteSpace=wrap;html=1;strokeColor=none;fillColor=#000000;rounded=1;arcSize=5;rotation=-90;container=0;" parent="gP5-K7wSO0AvluWSjb66-2" vertex="1">
          <mxGeometry x="240" y="9.75" width="6" height="6" as="geometry" />
        </mxCell>
        <mxCell id="YYMgzYGZ-UMVyeNX6nmy-254" value="" style="triangle;whiteSpace=wrap;html=1;strokeColor=none;fillColor=#000000;rounded=1;arcSize=5;rotation=90;container=0;" parent="gP5-K7wSO0AvluWSjb66-2" vertex="1">
          <mxGeometry x="240" y="16.75" width="6" height="6" as="geometry" />
        </mxCell>
        <mxCell id="YYMgzYGZ-UMVyeNX6nmy-255" value="" style="triangle;whiteSpace=wrap;html=1;strokeColor=none;fillColor=#000000;rounded=1;arcSize=5;rotation=-90;container=0;" parent="gP5-K7wSO0AvluWSjb66-2" vertex="1">
          <mxGeometry x="240" y="21.75" width="6" height="6" as="geometry" />
        </mxCell>
        <mxCell id="YYMgzYGZ-UMVyeNX6nmy-256" value="" style="triangle;whiteSpace=wrap;html=1;strokeColor=none;fillColor=#000000;rounded=1;arcSize=5;rotation=90;container=0;" parent="gP5-K7wSO0AvluWSjb66-2" vertex="1">
          <mxGeometry x="240" y="28.75" width="6" height="6" as="geometry" />
        </mxCell>
        <mxCell id="YYMgzYGZ-UMVyeNX6nmy-257" value="" style="triangle;whiteSpace=wrap;html=1;strokeColor=none;fillColor=#000000;rounded=1;arcSize=5;rotation=-90;container=0;" parent="gP5-K7wSO0AvluWSjb66-2" vertex="1">
          <mxGeometry x="240" y="33.75" width="6" height="6" as="geometry" />
        </mxCell>
        <mxCell id="YYMgzYGZ-UMVyeNX6nmy-258" value="" style="triangle;whiteSpace=wrap;html=1;strokeColor=none;fillColor=#000000;rounded=1;arcSize=5;rotation=90;container=0;" parent="gP5-K7wSO0AvluWSjb66-2" vertex="1">
          <mxGeometry x="240" y="4.75" width="6" height="6" as="geometry" />
        </mxCell>
        <mxCell id="YYMgzYGZ-UMVyeNX6nmy-259" value="" style="triangle;whiteSpace=wrap;html=1;strokeColor=none;fillColor=#000000;rounded=1;arcSize=5;rotation=-90;container=0;" parent="gP5-K7wSO0AvluWSjb66-2" vertex="1">
          <mxGeometry x="246" y="3.75" width="6" height="6" as="geometry" />
        </mxCell>
        <mxCell id="YYMgzYGZ-UMVyeNX6nmy-260" value="" style="triangle;whiteSpace=wrap;html=1;strokeColor=none;fillColor=#000000;rounded=1;arcSize=5;rotation=90;container=0;" parent="gP5-K7wSO0AvluWSjb66-2" vertex="1">
          <mxGeometry x="246" y="10.75" width="6" height="6" as="geometry" />
        </mxCell>
        <mxCell id="YYMgzYGZ-UMVyeNX6nmy-261" value="" style="triangle;whiteSpace=wrap;html=1;strokeColor=none;fillColor=#000000;rounded=1;arcSize=5;rotation=-90;container=0;" parent="gP5-K7wSO0AvluWSjb66-2" vertex="1">
          <mxGeometry x="246" y="15.75" width="6" height="6" as="geometry" />
        </mxCell>
        <mxCell id="YYMgzYGZ-UMVyeNX6nmy-262" value="" style="triangle;whiteSpace=wrap;html=1;strokeColor=none;fillColor=#000000;rounded=1;arcSize=5;rotation=90;container=0;" parent="gP5-K7wSO0AvluWSjb66-2" vertex="1">
          <mxGeometry x="246" y="22.75" width="6" height="6" as="geometry" />
        </mxCell>
        <mxCell id="YYMgzYGZ-UMVyeNX6nmy-263" value="" style="triangle;whiteSpace=wrap;html=1;strokeColor=none;fillColor=#000000;rounded=1;arcSize=5;rotation=-90;container=0;" parent="gP5-K7wSO0AvluWSjb66-2" vertex="1">
          <mxGeometry x="246" y="27.75" width="6" height="6" as="geometry" />
        </mxCell>
        <mxCell id="YYMgzYGZ-UMVyeNX6nmy-264" value="" style="triangle;whiteSpace=wrap;html=1;strokeColor=none;fillColor=#000000;rounded=1;arcSize=5;rotation=90;container=0;" parent="gP5-K7wSO0AvluWSjb66-2" vertex="1">
          <mxGeometry x="246" y="34.75" width="6" height="6" as="geometry" />
        </mxCell>
        <mxCell id="YYMgzYGZ-UMVyeNX6nmy-265" value="" style="triangle;whiteSpace=wrap;html=1;strokeColor=none;fillColor=#000000;rounded=1;arcSize=5;rotation=-90;container=0;" parent="gP5-K7wSO0AvluWSjb66-2" vertex="1">
          <mxGeometry x="252" y="9.75" width="6" height="6" as="geometry" />
        </mxCell>
        <mxCell id="YYMgzYGZ-UMVyeNX6nmy-266" value="" style="triangle;whiteSpace=wrap;html=1;strokeColor=none;fillColor=#000000;rounded=1;arcSize=5;rotation=90;container=0;" parent="gP5-K7wSO0AvluWSjb66-2" vertex="1">
          <mxGeometry x="252" y="16.75" width="6" height="6" as="geometry" />
        </mxCell>
        <mxCell id="YYMgzYGZ-UMVyeNX6nmy-267" value="" style="triangle;whiteSpace=wrap;html=1;strokeColor=none;fillColor=#000000;rounded=1;arcSize=5;rotation=-90;container=0;" parent="gP5-K7wSO0AvluWSjb66-2" vertex="1">
          <mxGeometry x="252" y="21.75" width="6" height="6" as="geometry" />
        </mxCell>
        <mxCell id="YYMgzYGZ-UMVyeNX6nmy-268" value="" style="triangle;whiteSpace=wrap;html=1;strokeColor=none;fillColor=#000000;rounded=1;arcSize=5;rotation=90;container=0;" parent="gP5-K7wSO0AvluWSjb66-2" vertex="1">
          <mxGeometry x="252" y="28.75" width="6" height="6" as="geometry" />
        </mxCell>
        <mxCell id="YYMgzYGZ-UMVyeNX6nmy-269" value="" style="triangle;whiteSpace=wrap;html=1;strokeColor=none;fillColor=#000000;rounded=1;arcSize=5;rotation=-90;container=0;" parent="gP5-K7wSO0AvluWSjb66-2" vertex="1">
          <mxGeometry x="252" y="33.75" width="6" height="6" as="geometry" />
        </mxCell>
        <mxCell id="YYMgzYGZ-UMVyeNX6nmy-270" value="" style="triangle;whiteSpace=wrap;html=1;strokeColor=none;fillColor=#000000;rounded=1;arcSize=5;rotation=90;container=0;" parent="gP5-K7wSO0AvluWSjb66-2" vertex="1">
          <mxGeometry x="252" y="4.75" width="6" height="6" as="geometry" />
        </mxCell>
        <mxCell id="YYMgzYGZ-UMVyeNX6nmy-271" value="" style="triangle;whiteSpace=wrap;html=1;strokeColor=none;fillColor=#000000;rounded=1;arcSize=5;rotation=-90;container=0;" parent="gP5-K7wSO0AvluWSjb66-2" vertex="1">
          <mxGeometry x="258" y="3.75" width="6" height="6" as="geometry" />
        </mxCell>
        <mxCell id="YYMgzYGZ-UMVyeNX6nmy-272" value="" style="triangle;whiteSpace=wrap;html=1;strokeColor=none;fillColor=#000000;rounded=1;arcSize=5;rotation=90;container=0;" parent="gP5-K7wSO0AvluWSjb66-2" vertex="1">
          <mxGeometry x="258" y="10.75" width="6" height="6" as="geometry" />
        </mxCell>
        <mxCell id="YYMgzYGZ-UMVyeNX6nmy-273" value="" style="triangle;whiteSpace=wrap;html=1;strokeColor=none;fillColor=#000000;rounded=1;arcSize=5;rotation=-90;container=0;" parent="gP5-K7wSO0AvluWSjb66-2" vertex="1">
          <mxGeometry x="258" y="15.75" width="6" height="6" as="geometry" />
        </mxCell>
        <mxCell id="YYMgzYGZ-UMVyeNX6nmy-274" value="" style="triangle;whiteSpace=wrap;html=1;strokeColor=none;fillColor=#000000;rounded=1;arcSize=5;rotation=90;container=0;" parent="gP5-K7wSO0AvluWSjb66-2" vertex="1">
          <mxGeometry x="258" y="22.75" width="6" height="6" as="geometry" />
        </mxCell>
        <mxCell id="YYMgzYGZ-UMVyeNX6nmy-275" value="" style="triangle;whiteSpace=wrap;html=1;strokeColor=none;fillColor=#000000;rounded=1;arcSize=5;rotation=-90;container=0;" parent="gP5-K7wSO0AvluWSjb66-2" vertex="1">
          <mxGeometry x="258" y="27.75" width="6" height="6" as="geometry" />
        </mxCell>
        <mxCell id="YYMgzYGZ-UMVyeNX6nmy-276" value="" style="triangle;whiteSpace=wrap;html=1;strokeColor=none;fillColor=#000000;rounded=1;arcSize=5;rotation=90;container=0;" parent="gP5-K7wSO0AvluWSjb66-2" vertex="1">
          <mxGeometry x="258" y="34.75" width="6" height="6" as="geometry" />
        </mxCell>
        <mxCell id="YYMgzYGZ-UMVyeNX6nmy-277" value="" style="triangle;whiteSpace=wrap;html=1;strokeColor=none;fillColor=#000000;rounded=1;arcSize=5;rotation=-90;container=0;" parent="gP5-K7wSO0AvluWSjb66-2" vertex="1">
          <mxGeometry x="264" y="9.75" width="6" height="6" as="geometry" />
        </mxCell>
        <mxCell id="YYMgzYGZ-UMVyeNX6nmy-278" value="" style="triangle;whiteSpace=wrap;html=1;strokeColor=none;fillColor=#000000;rounded=1;arcSize=5;rotation=90;container=0;" parent="gP5-K7wSO0AvluWSjb66-2" vertex="1">
          <mxGeometry x="264" y="16.75" width="6" height="6" as="geometry" />
        </mxCell>
        <mxCell id="YYMgzYGZ-UMVyeNX6nmy-279" value="" style="triangle;whiteSpace=wrap;html=1;strokeColor=none;fillColor=#000000;rounded=1;arcSize=5;rotation=-90;container=0;" parent="gP5-K7wSO0AvluWSjb66-2" vertex="1">
          <mxGeometry x="264" y="21.75" width="6" height="6" as="geometry" />
        </mxCell>
        <mxCell id="YYMgzYGZ-UMVyeNX6nmy-280" value="" style="triangle;whiteSpace=wrap;html=1;strokeColor=none;fillColor=#000000;rounded=1;arcSize=5;rotation=90;container=0;" parent="gP5-K7wSO0AvluWSjb66-2" vertex="1">
          <mxGeometry x="264" y="28.75" width="6" height="6" as="geometry" />
        </mxCell>
        <mxCell id="YYMgzYGZ-UMVyeNX6nmy-281" value="" style="triangle;whiteSpace=wrap;html=1;strokeColor=none;fillColor=#000000;rounded=1;arcSize=5;rotation=-90;container=0;" parent="gP5-K7wSO0AvluWSjb66-2" vertex="1">
          <mxGeometry x="264" y="33.75" width="6" height="6" as="geometry" />
        </mxCell>
        <mxCell id="YYMgzYGZ-UMVyeNX6nmy-282" value="" style="triangle;whiteSpace=wrap;html=1;strokeColor=none;fillColor=#000000;rounded=1;arcSize=5;rotation=90;container=0;" parent="gP5-K7wSO0AvluWSjb66-2" vertex="1">
          <mxGeometry x="264" y="4.75" width="6" height="6" as="geometry" />
        </mxCell>
        <mxCell id="YYMgzYGZ-UMVyeNX6nmy-283" value="" style="triangle;whiteSpace=wrap;html=1;strokeColor=none;fillColor=#000000;rounded=1;arcSize=5;rotation=-90;container=0;" parent="gP5-K7wSO0AvluWSjb66-2" vertex="1">
          <mxGeometry x="270" y="3.75" width="6" height="6" as="geometry" />
        </mxCell>
        <mxCell id="YYMgzYGZ-UMVyeNX6nmy-284" value="" style="triangle;whiteSpace=wrap;html=1;strokeColor=none;fillColor=#000000;rounded=1;arcSize=5;rotation=90;container=0;" parent="gP5-K7wSO0AvluWSjb66-2" vertex="1">
          <mxGeometry x="270" y="10.75" width="6" height="6" as="geometry" />
        </mxCell>
        <mxCell id="YYMgzYGZ-UMVyeNX6nmy-285" value="" style="triangle;whiteSpace=wrap;html=1;strokeColor=none;fillColor=#000000;rounded=1;arcSize=5;rotation=-90;container=0;" parent="gP5-K7wSO0AvluWSjb66-2" vertex="1">
          <mxGeometry x="270" y="15.75" width="6" height="6" as="geometry" />
        </mxCell>
        <mxCell id="YYMgzYGZ-UMVyeNX6nmy-286" value="" style="triangle;whiteSpace=wrap;html=1;strokeColor=none;fillColor=#000000;rounded=1;arcSize=5;rotation=90;container=0;" parent="gP5-K7wSO0AvluWSjb66-2" vertex="1">
          <mxGeometry x="270" y="22.75" width="6" height="6" as="geometry" />
        </mxCell>
        <mxCell id="YYMgzYGZ-UMVyeNX6nmy-287" value="" style="triangle;whiteSpace=wrap;html=1;strokeColor=none;fillColor=#000000;rounded=1;arcSize=5;rotation=-90;container=0;" parent="gP5-K7wSO0AvluWSjb66-2" vertex="1">
          <mxGeometry x="270" y="27.75" width="6" height="6" as="geometry" />
        </mxCell>
        <mxCell id="YYMgzYGZ-UMVyeNX6nmy-288" value="" style="triangle;whiteSpace=wrap;html=1;strokeColor=none;fillColor=#000000;rounded=1;arcSize=5;rotation=90;container=0;" parent="gP5-K7wSO0AvluWSjb66-2" vertex="1">
          <mxGeometry x="270" y="34.75" width="6" height="6" as="geometry" />
        </mxCell>
        <mxCell id="YYMgzYGZ-UMVyeNX6nmy-289" value="" style="triangle;whiteSpace=wrap;html=1;strokeColor=none;fillColor=#000000;rounded=1;arcSize=5;rotation=-90;container=0;" parent="gP5-K7wSO0AvluWSjb66-2" vertex="1">
          <mxGeometry x="276" y="9.75" width="6" height="6" as="geometry" />
        </mxCell>
        <mxCell id="YYMgzYGZ-UMVyeNX6nmy-290" value="" style="triangle;whiteSpace=wrap;html=1;strokeColor=none;fillColor=#000000;rounded=1;arcSize=5;rotation=90;container=0;" parent="gP5-K7wSO0AvluWSjb66-2" vertex="1">
          <mxGeometry x="276" y="16.75" width="6" height="6" as="geometry" />
        </mxCell>
        <mxCell id="YYMgzYGZ-UMVyeNX6nmy-291" value="" style="triangle;whiteSpace=wrap;html=1;strokeColor=none;fillColor=#000000;rounded=1;arcSize=5;rotation=-90;container=0;" parent="gP5-K7wSO0AvluWSjb66-2" vertex="1">
          <mxGeometry x="276" y="21.75" width="6" height="6" as="geometry" />
        </mxCell>
        <mxCell id="YYMgzYGZ-UMVyeNX6nmy-292" value="" style="triangle;whiteSpace=wrap;html=1;strokeColor=none;fillColor=#000000;rounded=1;arcSize=5;rotation=90;container=0;" parent="gP5-K7wSO0AvluWSjb66-2" vertex="1">
          <mxGeometry x="276" y="28.75" width="6" height="6" as="geometry" />
        </mxCell>
        <mxCell id="YYMgzYGZ-UMVyeNX6nmy-293" value="" style="triangle;whiteSpace=wrap;html=1;strokeColor=none;fillColor=#000000;rounded=1;arcSize=5;rotation=-90;container=0;" parent="gP5-K7wSO0AvluWSjb66-2" vertex="1">
          <mxGeometry x="276" y="33.75" width="6" height="6" as="geometry" />
        </mxCell>
        <mxCell id="YYMgzYGZ-UMVyeNX6nmy-294" value="" style="triangle;whiteSpace=wrap;html=1;strokeColor=none;fillColor=#000000;rounded=1;arcSize=5;rotation=90;container=0;" parent="gP5-K7wSO0AvluWSjb66-2" vertex="1">
          <mxGeometry x="276" y="4.75" width="6" height="6" as="geometry" />
        </mxCell>
        <mxCell id="YYMgzYGZ-UMVyeNX6nmy-295" value="" style="triangle;whiteSpace=wrap;html=1;strokeColor=none;fillColor=#000000;rounded=1;arcSize=5;rotation=-90;container=0;" parent="gP5-K7wSO0AvluWSjb66-2" vertex="1">
          <mxGeometry x="282" y="3.75" width="6" height="6" as="geometry" />
        </mxCell>
        <mxCell id="YYMgzYGZ-UMVyeNX6nmy-296" value="" style="triangle;whiteSpace=wrap;html=1;strokeColor=none;fillColor=#000000;rounded=1;arcSize=5;rotation=90;container=0;" parent="gP5-K7wSO0AvluWSjb66-2" vertex="1">
          <mxGeometry x="282" y="10.75" width="6" height="6" as="geometry" />
        </mxCell>
        <mxCell id="YYMgzYGZ-UMVyeNX6nmy-297" value="" style="triangle;whiteSpace=wrap;html=1;strokeColor=none;fillColor=#000000;rounded=1;arcSize=5;rotation=-90;container=0;" parent="gP5-K7wSO0AvluWSjb66-2" vertex="1">
          <mxGeometry x="282" y="15.75" width="6" height="6" as="geometry" />
        </mxCell>
        <mxCell id="YYMgzYGZ-UMVyeNX6nmy-298" value="" style="triangle;whiteSpace=wrap;html=1;strokeColor=none;fillColor=#000000;rounded=1;arcSize=5;rotation=90;container=0;" parent="gP5-K7wSO0AvluWSjb66-2" vertex="1">
          <mxGeometry x="282" y="22.75" width="6" height="6" as="geometry" />
        </mxCell>
        <mxCell id="YYMgzYGZ-UMVyeNX6nmy-299" value="" style="triangle;whiteSpace=wrap;html=1;strokeColor=none;fillColor=#000000;rounded=1;arcSize=5;rotation=-90;container=0;" parent="gP5-K7wSO0AvluWSjb66-2" vertex="1">
          <mxGeometry x="282" y="27.75" width="6" height="6" as="geometry" />
        </mxCell>
        <mxCell id="YYMgzYGZ-UMVyeNX6nmy-300" value="" style="triangle;whiteSpace=wrap;html=1;strokeColor=none;fillColor=#000000;rounded=1;arcSize=5;rotation=90;container=0;" parent="gP5-K7wSO0AvluWSjb66-2" vertex="1">
          <mxGeometry x="282" y="34.75" width="6" height="6" as="geometry" />
        </mxCell>
        <mxCell id="YYMgzYGZ-UMVyeNX6nmy-301" value="" style="triangle;whiteSpace=wrap;html=1;strokeColor=none;fillColor=#000000;rounded=1;arcSize=5;rotation=-90;container=0;" parent="gP5-K7wSO0AvluWSjb66-2" vertex="1">
          <mxGeometry x="288" y="9.75" width="6" height="6" as="geometry" />
        </mxCell>
        <mxCell id="YYMgzYGZ-UMVyeNX6nmy-302" value="" style="triangle;whiteSpace=wrap;html=1;strokeColor=none;fillColor=#000000;rounded=1;arcSize=5;rotation=90;container=0;" parent="gP5-K7wSO0AvluWSjb66-2" vertex="1">
          <mxGeometry x="288" y="16.75" width="6" height="6" as="geometry" />
        </mxCell>
        <mxCell id="YYMgzYGZ-UMVyeNX6nmy-303" value="" style="triangle;whiteSpace=wrap;html=1;strokeColor=none;fillColor=#000000;rounded=1;arcSize=5;rotation=-90;container=0;" parent="gP5-K7wSO0AvluWSjb66-2" vertex="1">
          <mxGeometry x="288" y="21.75" width="6" height="6" as="geometry" />
        </mxCell>
        <mxCell id="YYMgzYGZ-UMVyeNX6nmy-304" value="" style="triangle;whiteSpace=wrap;html=1;strokeColor=none;fillColor=#000000;rounded=1;arcSize=5;rotation=90;container=0;" parent="gP5-K7wSO0AvluWSjb66-2" vertex="1">
          <mxGeometry x="288" y="28.75" width="6" height="6" as="geometry" />
        </mxCell>
        <mxCell id="YYMgzYGZ-UMVyeNX6nmy-305" value="" style="triangle;whiteSpace=wrap;html=1;strokeColor=none;fillColor=#000000;rounded=1;arcSize=5;rotation=-90;container=0;" parent="gP5-K7wSO0AvluWSjb66-2" vertex="1">
          <mxGeometry x="288" y="33.75" width="6" height="6" as="geometry" />
        </mxCell>
        <mxCell id="YYMgzYGZ-UMVyeNX6nmy-306" value="" style="triangle;whiteSpace=wrap;html=1;strokeColor=none;fillColor=#000000;rounded=1;arcSize=5;rotation=90;container=0;" parent="gP5-K7wSO0AvluWSjb66-2" vertex="1">
          <mxGeometry x="288" y="4.75" width="6" height="6" as="geometry" />
        </mxCell>
        <mxCell id="YYMgzYGZ-UMVyeNX6nmy-307" value="" style="triangle;whiteSpace=wrap;html=1;strokeColor=none;fillColor=#000000;rounded=1;arcSize=5;rotation=-90;container=0;" parent="gP5-K7wSO0AvluWSjb66-2" vertex="1">
          <mxGeometry x="294" y="3.75" width="6" height="6" as="geometry" />
        </mxCell>
        <mxCell id="YYMgzYGZ-UMVyeNX6nmy-308" value="" style="triangle;whiteSpace=wrap;html=1;strokeColor=none;fillColor=#000000;rounded=1;arcSize=5;rotation=90;container=0;" parent="gP5-K7wSO0AvluWSjb66-2" vertex="1">
          <mxGeometry x="294" y="10.75" width="6" height="6" as="geometry" />
        </mxCell>
        <mxCell id="YYMgzYGZ-UMVyeNX6nmy-309" value="" style="triangle;whiteSpace=wrap;html=1;strokeColor=none;fillColor=#000000;rounded=1;arcSize=5;rotation=-90;container=0;" parent="gP5-K7wSO0AvluWSjb66-2" vertex="1">
          <mxGeometry x="294" y="15.75" width="6" height="6" as="geometry" />
        </mxCell>
        <mxCell id="YYMgzYGZ-UMVyeNX6nmy-310" value="" style="triangle;whiteSpace=wrap;html=1;strokeColor=none;fillColor=#000000;rounded=1;arcSize=5;rotation=90;container=0;" parent="gP5-K7wSO0AvluWSjb66-2" vertex="1">
          <mxGeometry x="294" y="22.75" width="6" height="6" as="geometry" />
        </mxCell>
        <mxCell id="YYMgzYGZ-UMVyeNX6nmy-311" value="" style="triangle;whiteSpace=wrap;html=1;strokeColor=none;fillColor=#000000;rounded=1;arcSize=5;rotation=-90;container=0;" parent="gP5-K7wSO0AvluWSjb66-2" vertex="1">
          <mxGeometry x="294" y="27.75" width="6" height="6" as="geometry" />
        </mxCell>
        <mxCell id="YYMgzYGZ-UMVyeNX6nmy-312" value="" style="triangle;whiteSpace=wrap;html=1;strokeColor=none;fillColor=#000000;rounded=1;arcSize=5;rotation=90;container=0;" parent="gP5-K7wSO0AvluWSjb66-2" vertex="1">
          <mxGeometry x="294" y="34.75" width="6" height="6" as="geometry" />
        </mxCell>
        <mxCell id="YYMgzYGZ-UMVyeNX6nmy-313" value="" style="triangle;whiteSpace=wrap;html=1;strokeColor=none;fillColor=#000000;rounded=1;arcSize=5;rotation=-90;container=0;" parent="gP5-K7wSO0AvluWSjb66-2" vertex="1">
          <mxGeometry x="300" y="9.75" width="6" height="6" as="geometry" />
        </mxCell>
        <mxCell id="YYMgzYGZ-UMVyeNX6nmy-314" value="" style="triangle;whiteSpace=wrap;html=1;strokeColor=none;fillColor=#000000;rounded=1;arcSize=5;rotation=90;container=0;" parent="gP5-K7wSO0AvluWSjb66-2" vertex="1">
          <mxGeometry x="300" y="16.75" width="6" height="6" as="geometry" />
        </mxCell>
        <mxCell id="YYMgzYGZ-UMVyeNX6nmy-315" value="" style="triangle;whiteSpace=wrap;html=1;strokeColor=none;fillColor=#000000;rounded=1;arcSize=5;rotation=-90;container=0;" parent="gP5-K7wSO0AvluWSjb66-2" vertex="1">
          <mxGeometry x="300" y="21.75" width="6" height="6" as="geometry" />
        </mxCell>
        <mxCell id="YYMgzYGZ-UMVyeNX6nmy-316" value="" style="triangle;whiteSpace=wrap;html=1;strokeColor=none;fillColor=#000000;rounded=1;arcSize=5;rotation=90;container=0;" parent="gP5-K7wSO0AvluWSjb66-2" vertex="1">
          <mxGeometry x="300" y="28.75" width="6" height="6" as="geometry" />
        </mxCell>
        <mxCell id="YYMgzYGZ-UMVyeNX6nmy-318" value="" style="triangle;whiteSpace=wrap;html=1;strokeColor=none;fillColor=#000000;rounded=1;arcSize=5;rotation=90;container=0;" parent="gP5-K7wSO0AvluWSjb66-2" vertex="1">
          <mxGeometry x="300" y="4.75" width="6" height="6" as="geometry" />
        </mxCell>
        <mxCell id="YYMgzYGZ-UMVyeNX6nmy-319" value="" style="triangle;whiteSpace=wrap;html=1;strokeColor=none;fillColor=#000000;rounded=1;arcSize=5;rotation=-90;container=0;" parent="gP5-K7wSO0AvluWSjb66-2" vertex="1">
          <mxGeometry x="306" y="3.75" width="6" height="6" as="geometry" />
        </mxCell>
        <mxCell id="YYMgzYGZ-UMVyeNX6nmy-320" value="" style="triangle;whiteSpace=wrap;html=1;strokeColor=none;fillColor=#000000;rounded=1;arcSize=5;rotation=90;container=0;" parent="gP5-K7wSO0AvluWSjb66-2" vertex="1">
          <mxGeometry x="306" y="10.75" width="6" height="6" as="geometry" />
        </mxCell>
        <mxCell id="YYMgzYGZ-UMVyeNX6nmy-321" value="" style="triangle;whiteSpace=wrap;html=1;strokeColor=none;fillColor=#000000;rounded=1;arcSize=5;rotation=-90;container=0;" parent="gP5-K7wSO0AvluWSjb66-2" vertex="1">
          <mxGeometry x="306" y="15.75" width="6" height="6" as="geometry" />
        </mxCell>
        <mxCell id="YYMgzYGZ-UMVyeNX6nmy-322" value="" style="triangle;whiteSpace=wrap;html=1;strokeColor=none;fillColor=#000000;rounded=1;arcSize=5;rotation=90;container=0;" parent="gP5-K7wSO0AvluWSjb66-2" vertex="1">
          <mxGeometry x="306" y="22.75" width="6" height="6" as="geometry" />
        </mxCell>
        <mxCell id="YYMgzYGZ-UMVyeNX6nmy-325" value="" style="triangle;whiteSpace=wrap;html=1;strokeColor=none;fillColor=#000000;rounded=1;arcSize=5;rotation=-90;container=0;" parent="gP5-K7wSO0AvluWSjb66-2" vertex="1">
          <mxGeometry x="312" y="9.75" width="6" height="6" as="geometry" />
        </mxCell>
        <mxCell id="YYMgzYGZ-UMVyeNX6nmy-326" value="" style="triangle;whiteSpace=wrap;html=1;strokeColor=none;fillColor=#000000;rounded=1;arcSize=5;rotation=90;container=0;" parent="gP5-K7wSO0AvluWSjb66-2" vertex="1">
          <mxGeometry x="312" y="16.75" width="6" height="6" as="geometry" />
        </mxCell>
        <mxCell id="YYMgzYGZ-UMVyeNX6nmy-330" value="" style="triangle;whiteSpace=wrap;html=1;strokeColor=none;fillColor=#000000;rounded=1;arcSize=5;rotation=90;container=0;" parent="gP5-K7wSO0AvluWSjb66-2" vertex="1">
          <mxGeometry x="312" y="4.75" width="6" height="6" as="geometry" />
        </mxCell>
        <mxCell id="YYMgzYGZ-UMVyeNX6nmy-331" value="" style="triangle;whiteSpace=wrap;html=1;strokeColor=none;fillColor=#000000;rounded=1;arcSize=5;rotation=-90;container=0;" parent="gP5-K7wSO0AvluWSjb66-2" vertex="1">
          <mxGeometry x="318" y="3.75" width="6" height="6" as="geometry" />
        </mxCell>
        <mxCell id="YYMgzYGZ-UMVyeNX6nmy-332" value="" style="triangle;whiteSpace=wrap;html=1;strokeColor=none;fillColor=#000000;rounded=1;arcSize=5;rotation=90;container=0;" parent="gP5-K7wSO0AvluWSjb66-2" vertex="1">
          <mxGeometry x="318" y="10.75" width="6" height="6" as="geometry" />
        </mxCell>
        <mxCell id="YYMgzYGZ-UMVyeNX6nmy-333" value="" style="triangle;whiteSpace=wrap;html=1;strokeColor=none;fillColor=#000000;rounded=1;arcSize=5;rotation=-90;container=0;" parent="gP5-K7wSO0AvluWSjb66-2" vertex="1">
          <mxGeometry x="318" y="15.75" width="6" height="6" as="geometry" />
        </mxCell>
        <mxCell id="YYMgzYGZ-UMVyeNX6nmy-337" value="" style="triangle;whiteSpace=wrap;html=1;strokeColor=none;fillColor=#000000;rounded=1;arcSize=5;rotation=-90;container=0;" parent="gP5-K7wSO0AvluWSjb66-2" vertex="1">
          <mxGeometry x="324" y="9.75" width="6" height="6" as="geometry" />
        </mxCell>
        <mxCell id="YYMgzYGZ-UMVyeNX6nmy-338" value="" style="triangle;whiteSpace=wrap;html=1;strokeColor=none;fillColor=#000000;rounded=1;arcSize=5;rotation=90;container=0;" parent="gP5-K7wSO0AvluWSjb66-2" vertex="1">
          <mxGeometry x="324" y="16.75" width="6" height="6" as="geometry" />
        </mxCell>
        <mxCell id="YYMgzYGZ-UMVyeNX6nmy-342" value="" style="triangle;whiteSpace=wrap;html=1;strokeColor=none;fillColor=#000000;rounded=1;arcSize=5;rotation=90;container=0;" parent="gP5-K7wSO0AvluWSjb66-2" vertex="1">
          <mxGeometry x="324" y="4.75" width="6" height="6" as="geometry" />
        </mxCell>
        <mxCell id="YYMgzYGZ-UMVyeNX6nmy-343" value="" style="triangle;whiteSpace=wrap;html=1;strokeColor=none;fillColor=#000000;rounded=1;arcSize=5;rotation=-90;container=0;" parent="gP5-K7wSO0AvluWSjb66-2" vertex="1">
          <mxGeometry x="330" y="3.75" width="6" height="6" as="geometry" />
        </mxCell>
        <mxCell id="YYMgzYGZ-UMVyeNX6nmy-344" value="" style="triangle;whiteSpace=wrap;html=1;strokeColor=none;fillColor=#000000;rounded=1;arcSize=5;rotation=90;container=0;" parent="gP5-K7wSO0AvluWSjb66-2" vertex="1">
          <mxGeometry x="330" y="10.75" width="6" height="6" as="geometry" />
        </mxCell>
        <mxCell id="YYMgzYGZ-UMVyeNX6nmy-345" value="" style="triangle;whiteSpace=wrap;html=1;strokeColor=none;fillColor=#000000;rounded=1;arcSize=5;rotation=-90;container=0;" parent="gP5-K7wSO0AvluWSjb66-2" vertex="1">
          <mxGeometry x="330" y="15.75" width="6" height="6" as="geometry" />
        </mxCell>
        <mxCell id="YYMgzYGZ-UMVyeNX6nmy-349" value="" style="triangle;whiteSpace=wrap;html=1;strokeColor=none;fillColor=#000000;rounded=1;arcSize=5;rotation=-90;container=0;" parent="gP5-K7wSO0AvluWSjb66-2" vertex="1">
          <mxGeometry x="336" y="9.75" width="6" height="6" as="geometry" />
        </mxCell>
        <mxCell id="YYMgzYGZ-UMVyeNX6nmy-350" value="" style="triangle;whiteSpace=wrap;html=1;strokeColor=none;fillColor=#000000;rounded=1;arcSize=5;rotation=90;container=0;" parent="gP5-K7wSO0AvluWSjb66-2" vertex="1">
          <mxGeometry x="336" y="16.75" width="6" height="6" as="geometry" />
        </mxCell>
        <mxCell id="YYMgzYGZ-UMVyeNX6nmy-354" value="" style="triangle;whiteSpace=wrap;html=1;strokeColor=none;fillColor=#000000;rounded=1;arcSize=5;rotation=90;container=0;" parent="gP5-K7wSO0AvluWSjb66-2" vertex="1">
          <mxGeometry x="336" y="4.75" width="6" height="6" as="geometry" />
        </mxCell>
        <mxCell id="YYMgzYGZ-UMVyeNX6nmy-355" value="" style="triangle;whiteSpace=wrap;html=1;strokeColor=none;fillColor=#000000;rounded=1;arcSize=5;rotation=-90;container=0;" parent="gP5-K7wSO0AvluWSjb66-2" vertex="1">
          <mxGeometry x="342" y="3.75" width="6" height="6" as="geometry" />
        </mxCell>
        <mxCell id="YYMgzYGZ-UMVyeNX6nmy-356" value="" style="triangle;whiteSpace=wrap;html=1;strokeColor=none;fillColor=#000000;rounded=1;arcSize=5;rotation=90;container=0;" parent="gP5-K7wSO0AvluWSjb66-2" vertex="1">
          <mxGeometry x="342" y="10.75" width="6" height="6" as="geometry" />
        </mxCell>
        <mxCell id="YYMgzYGZ-UMVyeNX6nmy-357" value="" style="triangle;whiteSpace=wrap;html=1;strokeColor=none;fillColor=#000000;rounded=1;arcSize=5;rotation=-90;container=0;" parent="gP5-K7wSO0AvluWSjb66-2" vertex="1">
          <mxGeometry x="342" y="15.75" width="6" height="6" as="geometry" />
        </mxCell>
        <mxCell id="YYMgzYGZ-UMVyeNX6nmy-361" value="" style="triangle;whiteSpace=wrap;html=1;strokeColor=none;fillColor=#000000;rounded=1;arcSize=5;rotation=-90;container=0;" parent="gP5-K7wSO0AvluWSjb66-2" vertex="1">
          <mxGeometry x="348" y="9.75" width="6" height="6" as="geometry" />
        </mxCell>
        <mxCell id="YYMgzYGZ-UMVyeNX6nmy-362" value="" style="triangle;whiteSpace=wrap;html=1;strokeColor=none;fillColor=#000000;rounded=1;arcSize=5;rotation=90;container=0;" parent="gP5-K7wSO0AvluWSjb66-2" vertex="1">
          <mxGeometry x="348" y="16.75" width="6" height="6" as="geometry" />
        </mxCell>
        <mxCell id="YYMgzYGZ-UMVyeNX6nmy-366" value="" style="triangle;whiteSpace=wrap;html=1;strokeColor=none;fillColor=#000000;rounded=1;arcSize=5;rotation=90;container=0;" parent="gP5-K7wSO0AvluWSjb66-2" vertex="1">
          <mxGeometry x="348" y="4.75" width="6" height="6" as="geometry" />
        </mxCell>
        <mxCell id="YYMgzYGZ-UMVyeNX6nmy-367" value="" style="triangle;whiteSpace=wrap;html=1;strokeColor=none;fillColor=#000000;rounded=1;arcSize=5;rotation=-90;container=0;" parent="gP5-K7wSO0AvluWSjb66-2" vertex="1">
          <mxGeometry x="354" y="3.75" width="6" height="6" as="geometry" />
        </mxCell>
        <mxCell id="YYMgzYGZ-UMVyeNX6nmy-368" value="" style="triangle;whiteSpace=wrap;html=1;strokeColor=none;fillColor=#000000;rounded=1;arcSize=5;rotation=90;container=0;" parent="gP5-K7wSO0AvluWSjb66-2" vertex="1">
          <mxGeometry x="354" y="10.75" width="6" height="6" as="geometry" />
        </mxCell>
        <mxCell id="YYMgzYGZ-UMVyeNX6nmy-369" value="" style="triangle;whiteSpace=wrap;html=1;strokeColor=none;fillColor=#000000;rounded=1;arcSize=5;rotation=-90;container=0;" parent="gP5-K7wSO0AvluWSjb66-2" vertex="1">
          <mxGeometry x="354" y="15.75" width="6" height="6" as="geometry" />
        </mxCell>
        <mxCell id="YYMgzYGZ-UMVyeNX6nmy-431" value="&lt;font color=&quot;#636466&quot;&gt;Smart-UPS&lt;/font&gt;" style="text;html=1;align=center;verticalAlign=middle;whiteSpace=wrap;rounded=0;fontSize=6;fontColor=#d9d8d9;container=0;" parent="gP5-K7wSO0AvluWSjb66-2" vertex="1">
          <mxGeometry x="309" y="35.5" width="50" height="5.25" as="geometry" />
        </mxCell>
        <mxCell id="YYMgzYGZ-UMVyeNX6nmy-440" value="" style="shape=image;verticalLabelPosition=bottom;labelBackgroundColor=default;verticalAlign=top;aspect=fixed;imageAspect=0;image=data:image/svg+xml,PHN2ZyB4bWxuczp4bGluaz0iaHR0cDovL3d3dy53My5vcmcvMTk5OS94bGluayIgeG1sbnM9Imh0dHA6Ly93d3cudzMub3JnLzIwMDAvc3ZnIiB4bWw6c3BhY2U9InByZXNlcnZlIiBzdHlsZT0iZW5hYmxlLWJhY2tncm91bmQ6bmV3IDAgMCAxMzU3IDQzNC4xOyIgdmlld0JveD0iMCAwIDEzNTcgNDM0LjEiIHk9IjBweCIgeD0iMHB4IiBpZD0iTGF5ZXJfMSIgdmVyc2lvbj0iMS4xIj4mI3hhOzxzdHlsZSB0eXBlPSJ0ZXh0L2NzcyI+JiN4YTsJLnN0MHtmaWxsOiM2MzY1NjY7c3Ryb2tlOnVybCgjU1ZHSURfMV8pO3N0cm9rZS1taXRlcmxpbWl0OjEwO30mI3hhOwkuc3Qxe2ZpbGw6IzYzNjU2NjtzdHJva2U6dXJsKCNTVkdJRF8wMDAwMDE0MzU5NzY4NjAxMDEzNTEwMzYwMDAwMDAwNjEwMTE1NDg2NDM4Njc2ODc5MV8pO3N0cm9rZS1taXRlcmxpbWl0OjEwO30mI3hhOzwvc3R5bGU+JiN4YTs8Zz4mI3hhOwkmI3hhOwkJPGxpbmVhckdyYWRpZW50IGdyYWRpZW50VHJhbnNmb3JtPSJtYXRyaXgoMSAwIDAgMSAwIC02NDQuOTA2MikiIHkyPSI2NDQuNDIiIHgyPSI5MzcuMDAzNSIgeTE9IjEwNzcuNjA2MiIgeDE9IjkzNy4wMDM1IiBncmFkaWVudFVuaXRzPSJ1c2VyU3BhY2VPblVzZSIgaWQ9IlNWR0lEXzFfIj4mI3hhOwkJPHN0b3Agc3R5bGU9InN0b3AtY29sb3I6I0ZGRkZGRiIgb2Zmc2V0PSIwIi8+JiN4YTsJCTxzdG9wIHN0eWxlPSJzdG9wLWNvbG9yOiMyQjI3MjgiIG9mZnNldD0iMSIvPiYjeGE7CQk8c3RvcCBzdHlsZT0ic3RvcC1jb2xvcjojMkIyNzI4IiBvZmZzZXQ9IjEiLz4mI3hhOwkJPHN0b3Agc3R5bGU9InN0b3AtY29sb3I6IzIzMUYyMCIgb2Zmc2V0PSIxIi8+JiN4YTsJPC9saW5lYXJHcmFkaWVudD4mI3hhOwk8cGF0aCBkPSJNMTE0Ny45LDIuM0MxMDY3LjYsMTUsOTk5LjMsNjEuNSw5NjgsMTI0LjhjLTIuMyw0LjYtNC42LDguNC01LjIsOC40Yy0wLjUsMC0wLjktMS43LTAuOS0zLjkmIzEwOyYjOTsmIzk7YzAtMTIuOS03LjYtMzguOS0xNi40LTU2LjNjLTE4LjYtMzYuNS00OS01OC43LTkwLjctNjYuMWMtMzQuMS02LjEtMTY1LjktNi4yLTI5Mi45LTAuM2MtMjMuOCwxLTQ0LDIuMy00NC43LDIuOCYjMTA7JiM5OyYjOTtjLTAuOSwwLjYsNC43LDE1LDE4LjYsNDcuOWMxOS40LDQ1LjksMjAsNDcuMSwyMy40LDQ3LjhjMiwwLjUsNTcuNCwwLjcsMTIzLjMsMC43YzEzNC0wLjEsMTIyLjktMC44LDEyOC4xLDguMyYjMTA7JiM5OyYjOTtjNC4yLDcuMyw1LjcsMTYsNS43LDMxLjRjMCwxNS42LTIuNCwyNC4xLTguMywyOS43bC0zLjIsMy4xSDY4MWwtMTIzLjksMC4ydjEyNS4ydjEyNS4ybDc0LjQsMC4zYzUwLDAuMSw3NS4xLTAuMSw3Ni43LTAuOSYjMTA7JiM5OyYjOTtjMi4yLTEuMSwyLjItMy4xLDIuMi03NC4xdi03Mi45aDYxLjNIODMzbDkuOC0yLjljNTAuMy0xNC42LDg0LjYtMzUuOCw5NS4zLTU5YzIuMS00LjUsNC4xLTcuOCw0LjYtNy41YzAuNSwwLjUsMC44LDUuOSwwLjgsMTEuOSYjMTA7JiM5OyYjOTtjMCwyMy4zLDcuNSw1MS42LDIwLjcsNzcuNmMxMi42LDI1LDI5LjIsNDYuNiw1MS40LDY2LjZjMzQsMzAuOCw2Ny45LDQ4LjIsMTEyLjEsNTcuOWMyMyw1LjEsMzYuNSw2LjMsNjYuMSw2LjMmIzEwOyYjOTsmIzk7YzQwLjksMCw2Ny4xLTMuNCwxMTAuOC0xNC41YzE0LjgtMy44LDM5LjMtMTEuNSw0Ny4zLTE0LjlsNC45LTIuMXYtNTQuMWMwLTI5LjktMC41LTU0LTEtNTRzLTYuMywyLjUtMTIuOSw1LjYmIzEwOyYjOTsmIzk7Yy00OC43LDIzLjItMTE1LDMyLjQtMTU5LjEsMjEuOWMtMjguOS02LjgtNTMuMy0yMC40LTcyLjktNDAuOWMtMjguNC0yOS42LTM3LjYtNjMtMjUuNS05My4zYzkuNi0yNC4xLDM1LjktNTAsNjQtNjIuOCYjMTA7JiM5OyYjOTtjMjIuNC0xMC41LDQwLjgtMTMuOCw2OC45LTEyLjljMzcuMSwxLjMsNzYsMTIuNCwxMjAuNSwzNC41YzkuMyw0LjYsMTcuMiw4LjIsMTcuNSw3LjhjMC4zLTAuMiwwLjYtMjgsMC42LTYxLjdWMzAuMWwtNC44LTEuOCYjMTA7JiM5OyYjOTtjLTE4LTYuNS02NC4zLTE3LjMtOTYuNC0yMi41QzEyMTcuNS0wLjQsMTE3My44LTEuNywxMTQ3LjksMi4zeiIgY2xhc3M9InN0MCIvPiYjeGE7CSYjeGE7CQk8bGluZWFyR3JhZGllbnQgZ3JhZGllbnRUcmFuc2Zvcm09Im1hdHJpeCgxIDAgMCAxIDAgLTY0NC45MDYyKSIgeTI9IjY1NC45MDE0IiB4Mj0iMjc1LjU2MjUiIHkxPSIxMDc5LjYwNjIiIHgxPSIyNzUuNTYyNSIgZ3JhZGllbnRVbml0cz0idXNlclNwYWNlT25Vc2UiIGlkPSJTVkdJRF8wMDAwMDEyMDU1NjQyMzM5ODA0ODM3OTg4MDAwMDAwMzUwODc5MjgyMzQzMTY3NDUzMl8iPiYjeGE7CQk8c3RvcCBzdHlsZT0ic3RvcC1jb2xvcjojRkZGRkZGIiBvZmZzZXQ9IjAiLz4mI3hhOwkJPHN0b3Agc3R5bGU9InN0b3AtY29sb3I6IzJCMjcyOCIgb2Zmc2V0PSIxIi8+JiN4YTsJCTxzdG9wIHN0eWxlPSJzdG9wLWNvbG9yOiMyQjI3MjgiIG9mZnNldD0iMSIvPiYjeGE7CQk8c3RvcCBzdHlsZT0ic3RvcC1jb2xvcjojMjMxRjIwIiBvZmZzZXQ9IjEiLz4mI3hhOwk8L2xpbmVhckdyYWRpZW50PiYjeGE7CTxwYXRoIGQ9Ik0xOTIuMSwxMS4xQzE5MS42LDEyLDE0Mi4zLDExOCw4NC4zLDI0My41Yy0xNy44LDM4LjItMzguOSw4NC00Ny4xLDEwMS42Yy04LjMsMTcuNy0yMC4xLDQzLjItMjYuNCw1Ni43JiMxMDsmIzk7JiM5O0M0LjYsNDE1LjQtMC4yLDQyNy4yLDAsNDI4YzAuOSwyLjIsMTQ0LDIuMiwxNDYuOSwwYzEtMC43LDQuMS02LjgsNi45LTEzLjRjMi45LTYuNywxNy45LTQyLjMsMzMuNS03OS4yJiMxMDsmIzk7JiM5O2MxNS42LTM3LDM0LjItODAuOCw0MS4zLTk3LjZjNy0xNi44LDIwLjYtNDguNywzMC03MC45YzkuNC0yMi4zLDE3LjctNDAuNSwxOC40LTQwLjVjMC42LDAsNS40LDEwLjUsMTAuNiwyMy4yJiMxMDsmIzk7JiM5O2MxMi4zLDMwLjksNjEuMywxNTIuMiw2Ny41LDE2Ny40YzIuNiw2LjcsNC41LDEyLjQsNC4xLDEyLjljLTAuNSwwLjUtMzQuMSwxLjEtNzQuOSwxLjZzLTc3LjUsMS4xLTgxLjgsMS41bC03LjcsMC43bDIyLjYsNDguOCYjMTA7JiM5OyYjOTtjMTIuNCwyNi45LDIzLjEsNDkuNSwyMy41LDUwLjJjMC44LDEuMSwzMy4xLDEuNSwxNTUuMywxLjVjODgsMCwxNTQuNi0wLjUsMTU0LjktMXMtMS42LTUuOS00LjQtMTEuNyYjMTA7JiM5OyYjOTtjLTUuNy0xMi4zLTY1LjUtMTQxLjYtNzAuMi0xNTEuOWMtMS43LTMuNy0xNC45LTMyLjQtMjkuNC02My43cy00MC43LTg4LjEtNTguMi0xMjYuMWwtMzEuOC02OS4xbC04Mi4zLTAuMSYjMTA7JiM5OyYjOTtDMjI5LjcsMTAuMywxOTIuNCwxMC43LDE5Mi4xLDExLjF6IiBzdHlsZT0iZmlsbDojNjM2NTY2O3N0cm9rZTp1cmwoI1NWR0lEXzAwMDAwMTIwNTU2NDIzMzk4MDQ4Mzc5ODgwMDAwMDAzNTA4NzkyODIzNDMxNjc0NTMyXyk7c3Ryb2tlLW1pdGVybGltaXQ6MTA7Ii8+JiN4YTs8L2c+JiN4YTs8L3N2Zz4=;container=0;" parent="gP5-K7wSO0AvluWSjb66-2" vertex="1">
          <mxGeometry x="318" y="24" width="30.47" height="9.75" as="geometry" />
        </mxCell>
        <mxCell id="YYMgzYGZ-UMVyeNX6nmy-16" value="" style="ellipse;whiteSpace=wrap;html=1;aspect=fixed;strokeColor=none;fillColor=#000000;container=0;" parent="gP5-K7wSO0AvluWSjb66-2" vertex="1">
          <mxGeometry x="2.5" y="29.5" width="4" height="4" as="geometry" />
        </mxCell>
        <mxCell id="YYMgzYGZ-UMVyeNX6nmy-17" value="" style="ellipse;whiteSpace=wrap;html=1;aspect=fixed;strokeColor=none;fillColor=#000000;container=0;" parent="gP5-K7wSO0AvluWSjb66-2" vertex="1">
          <mxGeometry x="12" y="37.25" width="4" height="4" as="geometry" />
        </mxCell>
        <mxCell id="YYMgzYGZ-UMVyeNX6nmy-18" value="" style="ellipse;whiteSpace=wrap;html=1;aspect=fixed;strokeColor=none;fillColor=#000000;container=0;" parent="gP5-K7wSO0AvluWSjb66-2" vertex="1">
          <mxGeometry x="2.5" y="11" width="4" height="4" as="geometry" />
        </mxCell>
        <mxCell id="YYMgzYGZ-UMVyeNX6nmy-19" value="" style="ellipse;whiteSpace=wrap;html=1;aspect=fixed;strokeColor=none;fillColor=#000000;container=0;" parent="gP5-K7wSO0AvluWSjb66-2" vertex="1">
          <mxGeometry x="12" y="3.25" width="4" height="4" as="geometry" />
        </mxCell>
        <mxCell id="PZP4gdgeWaH-fIwLRfgN-376" value="" style="rounded=0;whiteSpace=wrap;html=1;fillColor=#000000;fontColor=#ffffff;strokeColor=none;container=0;" parent="gP5-K7wSO0AvluWSjb66-2" vertex="1">
          <mxGeometry x="7" y="19.25" width="4" height="6" as="geometry" />
        </mxCell>
        <mxCell id="PZP4gdgeWaH-fIwLRfgN-381" value="" style="ellipse;whiteSpace=wrap;html=1;aspect=fixed;strokeColor=none;fillColor=#000000;container=0;" parent="gP5-K7wSO0AvluWSjb66-2" vertex="1">
          <mxGeometry x="8" y="19.25" width="6" height="6" as="geometry" />
        </mxCell>
        <mxCell id="PZP4gdgeWaH-fIwLRfgN-382" value="" style="ellipse;whiteSpace=wrap;html=1;aspect=fixed;strokeColor=none;fillColor=#000000;container=0;" parent="gP5-K7wSO0AvluWSjb66-2" vertex="1">
          <mxGeometry x="4" y="19.25" width="6" height="6" as="geometry" />
        </mxCell>
        <mxCell id="YYMgzYGZ-UMVyeNX6nmy-26" value="" style="ellipse;whiteSpace=wrap;html=1;aspect=fixed;strokeColor=none;fillColor=#000000;container=0;" parent="gP5-K7wSO0AvluWSjb66-2" vertex="1">
          <mxGeometry x="476.35" y="11" width="4" height="4" as="geometry" />
        </mxCell>
        <mxCell id="YYMgzYGZ-UMVyeNX6nmy-27" value="" style="ellipse;whiteSpace=wrap;html=1;aspect=fixed;strokeColor=none;fillColor=#000000;container=0;" parent="gP5-K7wSO0AvluWSjb66-2" vertex="1">
          <mxGeometry x="466.85" y="3.25" width="4" height="4" as="geometry" />
        </mxCell>
        <mxCell id="YYMgzYGZ-UMVyeNX6nmy-28" value="" style="ellipse;whiteSpace=wrap;html=1;aspect=fixed;strokeColor=none;fillColor=#000000;container=0;" parent="gP5-K7wSO0AvluWSjb66-2" vertex="1">
          <mxGeometry x="476.35" y="29.5" width="4" height="4" as="geometry" />
        </mxCell>
        <mxCell id="YYMgzYGZ-UMVyeNX6nmy-29" value="" style="ellipse;whiteSpace=wrap;html=1;aspect=fixed;strokeColor=none;fillColor=#000000;container=0;" parent="gP5-K7wSO0AvluWSjb66-2" vertex="1">
          <mxGeometry x="466.85" y="37.25" width="4" height="4" as="geometry" />
        </mxCell>
        <mxCell id="YYMgzYGZ-UMVyeNX6nmy-23" value="" style="rounded=0;whiteSpace=wrap;html=1;fillColor=#000000;fontColor=#ffffff;strokeColor=none;container=0;" parent="gP5-K7wSO0AvluWSjb66-2" vertex="1">
          <mxGeometry x="471.85" y="19.25" width="4" height="6" as="geometry" />
        </mxCell>
        <mxCell id="YYMgzYGZ-UMVyeNX6nmy-24" value="" style="ellipse;whiteSpace=wrap;html=1;aspect=fixed;strokeColor=none;fillColor=#000000;container=0;" parent="gP5-K7wSO0AvluWSjb66-2" vertex="1">
          <mxGeometry x="472.85" y="19.25" width="6" height="6" as="geometry" />
        </mxCell>
        <mxCell id="YYMgzYGZ-UMVyeNX6nmy-25" value="" style="ellipse;whiteSpace=wrap;html=1;aspect=fixed;strokeColor=none;fillColor=#000000;container=0;" parent="gP5-K7wSO0AvluWSjb66-2" vertex="1">
          <mxGeometry x="468.85" y="19.25" width="6" height="6" as="geometry" />
        </mxCell>
        <mxCell id="gP5-K7wSO0AvluWSjb66-1" value="" style="shape=image;verticalLabelPosition=bottom;labelBackgroundColor=default;verticalAlign=top;aspect=fixed;imageAspect=0;image=data:image/svg+xml,PHN2ZyB4bWxuczp4bGluaz0iaHR0cDovL3d3dy53My5vcmcvMTk5OS94bGluayIgeG1sbnM9Imh0dHA6Ly93d3cudzMub3JnLzIwMDAvc3ZnIiB4bWw6c3BhY2U9InByZXNlcnZlIiBzdHlsZT0iZW5hYmxlLWJhY2tncm91bmQ6bmV3IDAgMCAxODEuOCA2MTcuOTsiIHZpZXdCb3g9IjAgMCAxODEuOCA2MTcuOSIgeT0iMHB4IiB4PSIwcHgiIGlkPSJsYXllciIgdmVyc2lvbj0iMS4xIj4mI3hhOzxzdHlsZSB0eXBlPSJ0ZXh0L2NzcyI+JiN4YTsJLnN0MHtmaWxsOiM2MzY0NjY7fSYjeGE7PC9zdHlsZT4mI3hhOzxwYXRoIGQ9Ik0xNDguMyw3Ny4yYzUuNS0xMy43LDcuNy0yMS45LDcuNy0zMGMwLTguNS0yLjgtMTQtNy0xNGMtMTIuOSwwLTkuMyw0OC4zLTM5LjIsNDguMyYjMTA7JiM5O2MtMTYuNSwwLTI2LjEtMTUuMi0yNi4xLTM2LjRjMC0xNi42LDMuOS0yNC44LDguMy0zNC4yaDE4LjVjLTguMiwxMy42LTExLDIxLjktMTEsMzIuNGMwLDkuMSwyLjksMTQsNy45LDE0JiMxMDsmIzk7YzE0LjEsMCw4LjktNDguMywzOS43LTQ4LjNjMTQuOCwwLDI0LjYsMTQuMSwyNC42LDM2LjFjMCwxMC42LTIsMjAuMi02LjYsMzIuMUgxNDguM3ogTTg3LjYsMTQ0LjljLTIuNi04LjEtMy45LTE0LjktMy45LTIxLjYmIzEwOyYjOTtjMC0yMi41LDExLjktMzcsMzAtMzdjMTcuNywwLDMwLjMsMTUuMSwzMC4zLDM2LjJjMCw2LjUtMS41LDE0LjgtMy44LDIxLjVoLTEzLjZjMi41LTUuMywzLjktMTEuNCwzLjktMTYuNCYjMTA7JiM5O2MwLTEyLjEtNi42LTE5LjgtMTYuNy0xOS44Yy0xMC4zLDAtMTcuMSw3LjYtMTcuMSwxOS4xYzAsNC44LDEsOS4xLDQsMThIODcuNnogTTE0NCwzMzIuOGMwLTE5LjctMTIuNy0zMy44LTMwLjUtMzMuOCYjMTA7JiM5O2MtMTcuOSwwLTI5LjgsMTQuNi0yOS44LDM3LjFjMCw1LDAsMTcuMSw3LjcsMjguNWgxMS40Yy02LjEtOS40LTguMi0xNS42LTguMi0yMy43YzAtMTIuNyw2LTIwLjQsMTYuMS0yMS4xbDAsNDYmIzEwOyYjOTtDMTMxLjksMzY2LjcsMTQ0LDM1MS40LDE0NCwzMzIuOCBNMTIwLjQsMzIwLjJjOC4xLDAuOCwxMi43LDYsMTIuNywxMy45YzAsNy44LTQuOCwxMy0xMi43LDEzLjlWMzIwLjJ6IE0xNDIuOSwzNzMuNnYyMC4xbC01OC4yLDAmIzEwOyYjOTt2LTIwLjFMMTQyLjksMzczLjZ6IE0xNzAuNyw0NDkuNmgtMzAuM2MyLjQtNS40LDMuNi0xMC44LDMuNi0xNi43YzAtMTguMy0xMi4zLTMxLTMwLjEtMzFjLTE3LjQsMC0zMC4yLDEyLjctMzAuMiwyOS45JiMxMDsmIzk7YzAsNi44LDEuNiwxMi4xLDUuOCwxNy44aC00Ljd2MjAuMWw4NS45LDBWNDQ5LjZMMTcwLjcsNDQ5LjZ6IE0xMDAuNyw0NDkuNmMtMy40LTQuMi00LjgtNy43LTQuOC0xMS45YzAtOS41LDcuMS0xNS41LDE3LjctMTUuNSYjMTA7JiM5O2MxMS42LDAsMTguMyw2LDE4LjMsMTYuMWMwLDMuNi0xLjUsOC4zLTMuNCwxMS4zTDEwMC43LDQ0OS42eiBNMTQ0LDUxMS45YzAtMTkuNy0xMi43LTMzLjgtMzAuNS0zMy44Yy0xNy45LDAtMjkuOCwxNC42LTI5LjgsMzcuMSYjMTA7JiM5O2MwLDUsMCwxNy4xLDcuNywyOC42aDExLjRjLTYuMS05LjQtOC4yLTE1LjctOC4yLTIzLjdjMC0xMi42LDYtMjAuNCwxNi4xLTIxLjF2NDZDMTMxLjksNTQ1LjksMTQ0LDUzMC41LDE0NCw1MTEuOSBNMTIwLjQsNDk5LjQmIzEwOyYjOTtjOC4xLDAuOCwxMi43LDYsMTIuNywxMy45YzAsNy44LTQuOCwxMy4xLTEyLjcsMTMuOVY0OTkuNHogTTEyNi4zLDU3NXYwLjNjMTIuMSw2LDE3LjgsMTIuNiwxNy44LDIwLjRjMCw0LTEuNCw3LjUtNS4zLDEzLjMmIzEwOyYjOTtsLTE2LjItNS41YzMtNS4zLDQuMy04LjcsNC4zLTExLjljMC03LjQtNi4zLTEyLjEtMTctMTYuNWgtMjVWNTU1SDE0M3YyMC4xTDEyNi4zLDU3NUwxMjYuMyw1NzV6IE0xNjcuNCwzOTQuNiYjMTA7JiM5O2MtNC41LDEuOS0xMC44LTEuNS0xNC03LjZjLTMuMy02LjEtMi4yLTEyLjUsMi4zLTE0LjRzMTAuOCwxLjUsMTQsNy41QzE3Mi45LDM4Ni4yLDE3MS45LDM5Mi43LDE2Ny40LDM5NC42IE0xMjEuOCwyMTcuMiYjMTA7JiM5O2MxNS44LDAsMjIuMi0xMS44LDIyLjItMjMuNWMwLTcuOS0zLTE0LjQtOS43LTIwLjJ2LTAuM2gzNi4zdi0yMC4xSDg0Ljl2MjAuMWgzNi44YzYuMiw0LjcsOC44LDguNyw4LjgsMTMuNCYjMTA7JiM5O2MwLDYuMi00LDEwLjQtMTIuNywxMC40SDk3LjRjMy4xLDYuOCw1LjEsMTMuNiw1LjgsMjAuMWgxOC42VjIxNy4yeiBNMTQ0LDI2Ny43YzAtOC4yLTIuNy0xNC40LTkuNC0yMC44aDguM3YtMjAuMWgtMzkuNSYjMTA7JiM5O2MtMC42LDctMy41LDE1LjgtOC4zLDIwLjFoMjcuMmM3LjIsNS4zLDkuNiw5LDkuNiwxNGMwLDUuNy0zLjQsMTAtMTEuNiwxMGwtMzUuMywwVjI5MWwzNi44LDBDMTM4LjksMjkxLDE0NCwyNzcuNywxNDQsMjY3LjcmIzEwOyYjOTsgTTY4LjIsMzAyLjF2LTIzLjRINTMuMXYyMi42aC02LjR2LTIyLjZIMzEuMmwwLDI0LjFoLTYuNWwwLTMxLjloNTB2MzEuMkw2OC4yLDMwMi4xTDY4LjIsMzAyLjF6IE03NC43LDMyMS4ydjcuMmgtNTB2LTcuMkg3NC43eiYjMTA7JiM5OyBNNDAuMiwzNTMuOXYyNS41YzEyLjIsMCwxOC4xLTYuMSwxOC4xLTE1LjhjMC0xMC02LjctMTYuOS0xNi43LTE2LjljLTkuMSwwLTE3LjYsNi4zLTE3LjYsMTcuNWMwLDYuMSwxLjIsMTAuMSwzLjksMTQuNWg2LjQmIzEwOyYjOTtjLTIuNS00LjItNC04LjQtNC0xMi43QzMwLjMsMzU5LjEsMzMuNywzNTUsNDAuMiwzNTMuOSBNNTIuNywzNjMuOGMwLDUuMS0zLjIsOC4yLTguMiw4LjV2LTE4LjJDNDkuNywzNTUsNTIuNywzNTguMyw1Mi43LDM2My44JiMxMDsmIzk7IE00OSw0MjYuMWMyLjYtNC4xLDMuMy02LjksMy4zLTEwYzAtNi41LTQuNi0xMS4xLTExLjMtMTEuMWMtNi44LDAtMTAuOSw0LjgtMTAuOSwxMi4zYzAsMy4xLDAuNyw2LDIuMiw5LjZoLTYuNCYjMTA7JiM5O2MtMS0yLjQtMS45LTctMS45LTEwLjhjMC0xMC44LDYuOC0xOC40LDE2LjQtMTguNGMxMC45LDAsMTcuOCw2LjksMTcuOCwxNy45YzAsNC4yLTAuOSw3LTIuMywxMC41SDQ5eiBNNTcuNiw0NTguOHYxMS41aC01Ljh2LTExLjUmIzEwOyYjOTtIMzQuOWMtMy45LDAtNSwzLjEtNSw1LjJjMCwyLjYsMC44LDUuMywyLjQsOC4yaC02LjFjLTEuMi0yLjUtMi4yLTYuNC0yLjItOC43YzAtNy44LDQuNC0xMS43LDEwLjMtMTEuN2gxNy40di02LjNoMC43TDY0LjMsNDU5JiMxMDsmIzk7aC02LjdWNDU4Ljh6IE01Ny42LDQ5Ny42SDUwdjAuMWM1LjgsMy43LDguMyw3LjEsOC4zLDEwLjVjMCwyLjktMS4yLDUuNi0zLjgsOC43bC01LjctMy44YzItMi4yLDMuMy01LDMuMy02LjcmIzEwOyYjOTtjMC00LjktNC41LTguOC0xMC4yLTguOEgyNC43di03LjFoMzNMNTcuNiw0OTcuNkw1Ny42LDQ5Ny42eiBNNDksNTkwLjJjMi42LTQuMSwzLjMtNi45LDMuMy0xMGMwLTYuNS00LjYtMTEtMTEuMy0xMSYjMTA7JiM5O2MtNi44LDAtMTAuOSw0LjgtMTAuOSwxMi4zYzAsMywwLjcsNiwyLjIsOS42aC02LjRjLTEtMi41LTEuOS03LTEuOS0xMC44YzAtMTAuOCw2LjgtMTguNCwxNi40LTE4LjRjMTAuOSwwLDE3LjgsNi45LDE3LjgsMTcuOSYjMTA7JiM5O2MwLDQuMi0wLjksNy0yLjMsMTAuNUw0OSw1OTAuMkw0OSw1OTAuMnogTTU3LjYsNTM1Ljl2Ny4yaC0zM3YtNy4ySDU3LjZ6IE02OS41LDU0My4zYy0xLjYsMC43LTMuOC0wLjUtNS0yLjdzLTAuOC00LjUsMC44LTUuMSYjMTA7JiM5O2MxLjYtMC43LDMuOCwwLjUsNSwyLjdDNzEuNSw1NDAuMyw3MS4xLDU0Mi42LDY5LjUsNTQzLjMgTTUzLjQsMjI3LjNsNy4yLDIuMmwwLDE5LjhjMTAuNCwyLjQsMjAsMC41LDI2LjItNi40JiMxMDsmIzk7YzEyLjctMTQsOC40LTQzLjQtMTAuNi02NS4yYy0zLTMuNC02LjEtNi4zLTkuNC04Ljl2MTEuOWwtNy4yLTIuOHYtMTQuMmMtMi4zLTEuNC00LjUtMi43LTYuOC0zLjZWMTc3bC03LjItMi43di0xNi42JiMxMDsmIzk7Yy0xMC45LTIuOC0yMS4xLTEtMjcuNiw2LjFjLTEyLjYsMTMuOS04LjEsNDMuMSwxMC44LDY1YzMuMywzLjgsNi45LDcsMTAuNSw5Ljh2LTE1LjNsNy4yLDIuM2wwLDE3LjljMi4zLDEuMyw0LjUsMi41LDYuOCwzLjQmIzEwOyYjOTtsMC0xOS42TDUzLjQsMjI3LjNMNTMuNCwyMjcuM3ogTTY2LjgsMjIyLjljMC0xLjMtMC4yLTEuOC0wLjctMi4zYy0wLjItMC4yLTAuNC0wLjMtMC44LTAuNGwtMjIuMS02LjRjLTcuOC0xLjUtMTUuNS0xMi0xNS41LTI1LjcmIzEwOyYjOTt2LTcuNHYtMTEuNmwxMS4zLDMuM3YxMi4yYzAsMS4yLDAuNCwyLjIsMS4yLDNjMC4zLDAuMywwLjgsMC43LDEuMywwLjdsMTkuMyw1LjFjNy44LDEuNSwxNi4zLDEwLjUsMTYuMywyNC4yVjIzN2wtMTAuNC0yLjUmIzEwOyYjOTtMNjYuOCwyMjIuOUw2Ni44LDIyMi45eiIgY2xhc3M9InN0MCIvPiYjeGE7PC9zdmc+;" vertex="1" parent="gP5-K7wSO0AvluWSjb66-2">
          <mxGeometry x="22" y="10.75" width="6.77" height="23" as="geometry" />
        </mxCell>
      </root>
    </mxGraphModel>
  </diagram>
</mxfile>
